<?xml version="1.0" encoding="UTF-8"?>
<svg width="17px" height="13px" viewBox="0 0 17 13" version="1.1" xmlns="http://www.w3.org/2000/svg" xmlns:xlink="http://www.w3.org/1999/xlink">
    <!-- Generator: Sketch 46.2 (44496) - http://www.bohemiancoding.com/sketch -->
    <title>Custom - Check</title>
    <desc>Created with Sketch.</desc>
    <defs></defs>
    <g id="Opportunities" stroke="none" stroke-width="1" fill="none" fill-rule="evenodd">
        <g id="Opportunities---Possible-Condition-Open" transform="translate(-223.000000, -437.000000)">
            <g id="Content" transform="translate(195.000000, 96.000000)">
                <g id="Possible-Conditions" transform="translate(0.000000, 30.000000)">
                    <g id="Opportunities" transform="translate(0.000000, 30.000000)">
                        <g id="Documentation-Warnings" transform="translate(17.000000, 190.000000)">
                            <g id="Custom---Check" transform="translate(7.000000, 85.000000)">
                                <polygon id="Shape" points="0 0 24 0 24 24 0 24"></polygon>
                                <g id="Icon-:-thick-check" transform="translate(6.000000, 8.000000)" fill-rule="nonzero" fill="#19A652">
                                    <path d="M-1.03055803,6.2327884 L2.40760863,9.4836634 C3.00956105,10.0528249 3.95893644,10.0262426 4.52809792,9.42429017 C5.09725941,8.82233776 5.07067711,7.87296237 4.4687247,7.30380089 L1.03055803,4.05292589 C0.428605621,3.4837644 -0.520769772,3.5103467 -1.08993126,4.11229911 C-1.65909274,4.71425152 -1.63251044,5.66362691 -1.03055803,6.2327884 Z" id="Stroke-23"></path>
                                    <path d="M12.29213,-1.07976644 L2.95879664,7.92023356 C2.3624581,8.49527429 2.34519282,9.44486482 2.92023356,10.0412034 C3.49527429,10.6375419 4.44486482,10.6548072 5.04120336,10.0797664 L14.3745367,1.07976644 C14.9708752,0.504725708 14.9881405,-0.444864816 14.4130998,-1.04120336 C13.838059,-1.6375419 12.8884685,-1.65480718 12.29213,-1.07976644 Z" id="Stroke-25"></path>
                                </g>
                            </g>
                        </g>
                    </g>
                </g>
            </g>
        </g>
    </g>
</svg>