<?xml version="1.0" encoding="UTF-8"?>
<svg width="10px" height="16px" viewBox="0 0 10 16" version="1.1" xmlns="http://www.w3.org/2000/svg" xmlns:xlink="http://www.w3.org/1999/xlink">
    <!-- Generator: Sketch 46.2 (44496) - http://www.bohemiancoding.com/sketch -->
    <title>Custom - Grip</title>
    <desc>Created with Sketch.</desc>
    <defs></defs>
    <g id="Grouper" stroke="none" stroke-width="1" fill="none" fill-rule="evenodd" opacity="0.54">
        <g id="Grouper-v1---Hover" transform="translate(-198.000000, -495.000000)" fill-rule="nonzero" fill="#353D48">
            <g id="DRG--Grouper" transform="translate(195.000000, 375.000000)">
                <g id="Work-area">
                    <g id="Diagnoses">
                        <g id="Custom---Grip" transform="translate(8.000000, 128.000000) rotate(90.000000) translate(-8.000000, -128.000000) translate(0.000000, 123.000000)">
                            <path d="M2,6 C0.9,6 0,6.9 0,8 C0,9.1 0.9,10 2,10 C3.1,10 4,9.1 4,8 C4,6.9 3.1,6 2,6 Z M14,6 C12.9,6 12,6.9 12,8 C12,9.1 12.9,10 14,10 C15.1,10 16,9.1 16,8 C16,6.9 15.1,6 14,6 Z M8,6 C6.9,6 6,6.9 6,8 C6,9.1 6.9,10 8,10 C9.1,10 10,9.1 10,8 C10,6.9 9.1,6 8,6 Z" id="Shape"></path>
                            <path d="M2,0 C0.9,0 0,0.9 0,2 C0,3.1 0.9,4 2,4 C3.1,4 4,3.1 4,2 C4,0.9 3.1,0 2,0 Z M14,0 C12.9,0 12,0.9 12,2 C12,3.1 12.9,4 14,4 C15.1,4 16,3.1 16,2 C16,0.9 15.1,0 14,0 Z M8,0 C6.9,0 6,0.9 6,2 C6,3.1 6.9,4 8,4 C9.1,4 10,3.1 10,2 C10,0.9 9.1,0 8,0 Z" id="Shape"></path>
                        </g>
                    </g>
                </g>
            </g>
        </g>
    </g>
</svg>