<?xml version="1.0" encoding="UTF-8"?>
<svg width="21px" height="20px" viewBox="0 0 21 20" version="1.1" xmlns="http://www.w3.org/2000/svg" xmlns:xlink="http://www.w3.org/1999/xlink">
    <!-- Generator: Sketch 46.2 (44496) - http://www.bohemiancoding.com/sketch -->
    <title>custom-timeline-consult</title>
    <desc>Created with Sketch.</desc>
    <defs></defs>
    <g id="Timeline" stroke="none" stroke-width="1" fill="none" fill-rule="evenodd">
        <g id="Timeline---Details" transform="translate(-654.000000, -880.000000)">
            <g id="Content" transform="translate(496.000000, 126.000000)">
                <g id="Timeline" transform="translate(0.000000, 129.000000)">
                    <g id="Reports" transform="translate(11.000000, 78.000000)">
                        <g id="Blood-Culture" transform="translate(0.000000, 534.000000)">
                            <g id="Icon" transform="translate(136.800000, 0.000000)">
                                <g id="custom-timeline-consult" transform="translate(1.000000, 3.000000)">
                                    <path d="M20,20 C22.7625,20 25,17.7625 25,15 C25,12.2375 22.7625,10 20,10 C17.2375,10 15,12.2375 15,15 C15,17.7625 17.2375,20 20,20 Z M20,22.5 C16.6625,22.5 10,24.175 10,27.5 L10,30 L30,30 L30,27.5 C30,24.175 23.3375,22.5 20,22.5 Z" id="Shape" fill="#FFFFFF" fill-rule="nonzero"></path>
                                    <path d="M0.2,0 L38.2,0 L38.2,0 C39.3045695,-2.02906125e-16 40.2,0.8954305 40.2,2 L40.2,38 L40.2,38 C40.2,39.1045695 39.3045695,40 38.2,40 L0.2,40 L0.2,0 Z" id="Rectangle-7"></path>
                                    <polygon id="Shape" points="8 8 32 8 32 32 8 32"></polygon>
                                </g>
                            </g>
                        </g>
                    </g>
                </g>
            </g>
        </g>
    </g>
</svg>