<?xml version="1.0" encoding="UTF-8"?>
<svg width="22px" height="22px" viewBox="0 0 22 22" version="1.1" xmlns="http://www.w3.org/2000/svg" xmlns:xlink="http://www.w3.org/1999/xlink">
    <!-- Generator: Sketch 46.2 (44496) - http://www.bohemiancoding.com/sketch -->
    <title>custom-undo-review</title>
    <desc>Created with Sketch.</desc>
    <defs></defs>
    <g id="Components" stroke="none" stroke-width="1" fill="none" fill-rule="evenodd">
        <g id="Toolbar-Hover-States" transform="translate(-887.000000, -573.000000)" fill-rule="nonzero" fill="#93969C">
            <g id="More-Dropdown" transform="translate(878.000000, 469.000000)">
                <g id="Manually-Deprioritize" transform="translate(0.000000, 100.000000)">
                    <g id="custom-undo-review" transform="translate(10.000000, 5.000000)">
                        <g id="Check" transform="translate(2.190476, 4.000000)">
                            <path d="M0.949809314,7.64245589 L3.89680931,10.5321226 C4.48832137,11.1121269 5.43802302,11.102798 6.01802732,10.5112859 C6.59803162,9.91977387 6.58870274,8.97007222 5.99719069,8.39006792 L3.05019069,5.50040125 C2.45867863,4.92039695 1.50897698,4.92972583 0.928972678,5.52123789 C0.348968378,6.11274994 0.358297258,7.06245159 0.949809314,7.64245589 Z" id="Stroke-23"></path>
                            <path d="M12.3679113,0.939339828 L9.11075022,4.19650086 L11.355106,6.19478581 L14.4892316,3.06066017 C15.075018,2.47487373 15.075018,1.52512627 14.4892316,0.939339828 C13.9034452,0.353553391 12.9536977,0.353553391 12.3679113,0.939339828 Z" id="Stroke-25"></path>
                            <path d="M6.99099354,6.31625755 L4.36791126,8.93933983 C3.78212482,9.52512627 3.78212482,10.4748737 4.36791126,11.0606602 C4.95369769,11.6464466 5.90344516,11.6464466 6.4892316,11.0606602 L9.22477988,8.32511189 L6.99099354,6.31625755 Z" id="Stroke-25"></path>
                        </g>
                        <path d="M10,20.5 C4.20101013,20.5 -0.5,15.7989899 -0.5,10 C-0.5,4.20101013 4.20101013,-0.5 10,-0.5 C15.7989899,-0.5 20.5,4.20101013 20.5,10 C20.5,15.7989899 15.7989899,20.5 10,20.5 Z M10,19.5 C15.2467051,19.5 19.5,15.2467051 19.5,10 C19.5,4.75329488 15.2467051,0.5 10,0.5 C4.75329488,0.5 0.5,4.75329488 0.5,10 C0.5,15.2467051 4.75329488,19.5 10,19.5 Z M2.96600596,3.63218627 L17.3169929,16.0697083 L17.9163005,15.2658127 L3.67999737,2.92768328 L2.96600596,3.63218627 Z" id="Oval"></path>
                    </g>
                </g>
            </g>
        </g>
    </g>
</svg>