<?xml version="1.0" encoding="UTF-8"?>
<svg width="34px" height="13px" viewBox="0 0 34 13" version="1.1" xmlns="http://www.w3.org/2000/svg" xmlns:xlink="http://www.w3.org/1999/xlink">
    <!-- Generator: Sketch 46.2 (44496) - http://www.bohemiancoding.com/sketch -->
    <title>custom-timeline-DRG</title>
    <desc>Created with Sketch.</desc>
    <defs></defs>
    <g id="Timeline" stroke="none" stroke-width="1" fill="none" fill-rule="evenodd">
        <g id="Timeline---Details" transform="translate(-847.000000, -1432.000000)">
            <g id="Content" transform="translate(496.000000, 126.000000)">
                <g id="Timeline" transform="translate(0.000000, 129.000000)">
                    <g id="Reports" transform="translate(11.000000, 78.000000)">
                        <g id="DRG" transform="translate(198.000000, 1083.000000)">
                            <g id="Group-8" transform="translate(136.800000, 0.000000)">
                                <g id="custom-timeline-DRG" transform="translate(2.000000, 3.000000)">
                                    <rect id="Rectangle-15" x="-5.68434189e-14" y="0" width="40" height="40"></rect>
                                    <path d="M5.5546875,15.484375 L5.5546875,23 L7.7734375,23 C8.90885984,23 9.70051859,22.4401098 10.1484375,21.3203125 C10.3932304,20.7057261 10.515625,19.9739626 10.515625,19.125 C10.515625,17.9531191 10.3320331,17.0533886 9.96484375,16.4257812 C9.59765441,15.7981739 8.86719297,15.484375 7.7734375,15.484375 L5.5546875,15.484375 Z M9.9609375,13.734375 C10.7682332,14.0000013 11.4218725,14.4869756 11.921875,15.1953125 C12.3229187,15.768232 12.5963534,16.3880175 12.7421875,17.0546875 C12.8880216,17.7213575 12.9609375,18.3567678 12.9609375,18.9609375 C12.9609375,20.4921952 12.6536489,21.7890572 12.0390625,22.8515625 C11.205725,24.2838613 9.91927953,25 8.1796875,25 L3.21875,25 L3.21875,13.484375 L8.1796875,13.484375 C8.89323273,13.4947917 9.4869768,13.5781242 9.9609375,13.734375 Z M17.1796875,15.484375 L17.1796875,18.578125 L19.90625,18.578125 C20.4479194,18.578125 20.8541653,18.5156256 21.125,18.390625 C21.6041691,18.1718739 21.84375,17.7395866 21.84375,17.09375 C21.84375,16.3958298 21.6119815,15.9270845 21.1484375,15.6875 C20.8880195,15.5520827 20.4973984,15.484375 19.9765625,15.484375 L17.1796875,15.484375 Z M22.3398437,13.78125 C22.7747418,13.9635426 23.1432277,14.2317691 23.4453125,14.5859375 C23.6953137,14.8776056 23.8932284,15.2005191 24.0390625,15.5546875 C24.1848966,15.9088559 24.2578125,16.3124977 24.2578125,16.765625 C24.2578125,17.3125027 24.119793,17.8502578 23.84375,18.3789062 C23.567707,18.9075547 23.1119823,19.2812489 22.4765625,19.5 C23.0078152,19.7135427 23.3841135,20.0169251 23.6054687,20.4101562 C23.826824,20.8033874 23.9375,21.4036418 23.9375,22.2109375 L23.9375,22.984375 C23.9375,23.5104193 23.9583331,23.8671866 24,24.0546875 C24.0625003,24.351564 24.2083322,24.5703118 24.4375,24.7109375 L24.4375,25 L21.7890625,25 C21.7161455,24.7447904 21.6640627,24.5390633 21.6328125,24.3828125 C21.5703122,24.0598942 21.5364584,23.7291684 21.53125,23.390625 L21.515625,22.3203125 C21.5052083,21.5859338 21.371095,21.0963554 21.1132812,20.8515625 C20.8554675,20.6067696 20.3723994,20.484375 19.6640625,20.484375 L17.1796875,20.484375 L17.1796875,25 L14.828125,25 L14.828125,13.484375 L20.4765625,13.484375 C21.2838582,13.5000001 21.9049457,13.5989574 22.3398437,13.78125 Z M34.0703125,17.078125 C33.8880199,16.2916627 33.4427119,15.7421891 32.734375,15.4296875 C32.3385397,15.2578116 31.8984399,15.171875 31.4140625,15.171875 C30.4869745,15.171875 29.7252634,15.5221319 29.1289062,16.2226562 C28.5325491,16.9231806 28.234375,17.9765555 28.234375,19.3828125 C28.234375,20.7994863 28.5572884,21.8020804 29.203125,22.390625 C29.8489616,22.9791696 30.5833292,23.2734375 31.40625,23.2734375 C32.2135457,23.2734375 32.8749974,23.0403669 33.390625,22.5742188 C33.9062526,22.1080706 34.2239577,21.4973996 34.34375,20.7421875 L31.6796875,20.7421875 L31.6796875,18.8203125 L36.4765625,18.8203125 L36.4765625,25 L34.8828125,25 L34.640625,23.5625 C34.177081,24.1093777 33.7604185,24.4947905 33.390625,24.71875 C32.7552052,25.109377 31.973963,25.3046875 31.046875,25.3046875 C29.5208257,25.3046875 28.2708382,24.776047 27.296875,23.71875 C26.2812449,22.6562447 25.7734375,21.2031342 25.7734375,19.359375 C25.7734375,17.4947823 26.2864532,16.0000056 27.3125,14.875 C28.3385468,13.7499944 29.6953041,13.1875 31.3828125,13.1875 C32.8463615,13.1875 34.022131,13.55859 34.9101562,14.3007812 C35.7981815,15.0429725 36.307291,15.9687445 36.4375,17.078125 L34.0703125,17.078125 Z" id="DRG" fill="#FFFFFF"></path>
                                </g>
                            </g>
                        </g>
                    </g>
                </g>
            </g>
        </g>
    </g>
</svg>