<?xml version="1.0" encoding="UTF-8"?>
<svg width="19px" height="19px" viewBox="0 0 19 19" version="1.1" xmlns="http://www.w3.org/2000/svg" xmlns:xlink="http://www.w3.org/1999/xlink">
    <!-- Generator: Sketch 46.2 (44496) - http://www.bohemiancoding.com/sketch -->
    <title>custom-timeline-query</title>
    <desc>Created with Sketch.</desc>
    <defs></defs>
    <g id="Timeline" stroke="none" stroke-width="1" fill="none" fill-rule="evenodd">
        <g id="Timeline---Details" transform="translate(-655.000000, -1430.000000)">
            <g id="Content" transform="translate(496.000000, 126.000000)">
                <g id="Timeline" transform="translate(0.000000, 129.000000)">
                    <g id="Reports" transform="translate(11.000000, 78.000000)">
                        <g id="Query" transform="translate(0.000000, 1084.000000)">
                            <g id="Icon" transform="translate(136.800000, 0.000000)">
                                <g id="custom-timeline-query" transform="translate(1.200000, 3.000000)">
                                    <rect id="Rectangle-11" x="-2.84217094e-14" y="0" width="40" height="40"></rect>
                                    <path d="M25.6318601,26.9194145 L20.0870655,23.8961903 L27.0266097,12.936765 L25.6318601,26.9194145 Z M16.6533972,22.0833959 L12.4016912,22.0833959 L23.990084,13.9714259 L16.6533972,22.0833959 Z M28.4109081,10.5795622 C28.4109081,10.5577098 28.4109081,10.5377577 28.4080578,10.5168554 C28.4061576,10.4969033 28.4061576,10.4769512 28.4014071,10.4579491 C28.3985568,10.4455978 28.3919061,10.4351467 28.3900059,10.4246955 C28.3833552,10.4028432 28.3767045,10.3828911 28.3681536,10.3619888 C28.3634031,10.3505876 28.3615028,10.3382363 28.3558022,10.3258849 C28.344401,10.3087831 28.3349,10.2926314 28.3225487,10.2745794 C28.3111474,10.2584277 28.3006963,10.242276 28.288345,10.2270744 C28.2712432,10.205222 28.2531912,10.1833697 28.2332391,10.1634175 C28.2275385,10.158667 28.2256383,10.1539165 28.2218379,10.1501161 C28.2123369,10.1415652 28.2018857,10.139665 28.1923847,10.1330143 C28.1819336,10.1235132 28.1724326,10.1159124 28.1629316,10.1092617 C28.1534305,10.1035611 28.1505802,10.0959603 28.1439295,10.0902597 C28.1410792,10.0893096 28.1382289,10.0893096 28.1344285,10.0874094 C28.1306281,10.0845591 28.1287279,10.0807587 28.1249275,10.0798086 C28.1030751,10.0665071 28.0783725,10.0617566 28.0546199,10.0513055 C28.036568,10.0437047 28.0194662,10.0351538 27.999514,10.0304033 C27.9824122,10.0237525 27.9643603,10.019002 27.9472584,10.0161517 C27.9263562,10.0114012 27.9073541,10.0114012 27.8855018,10.0085509 C27.8664998,10.0057006 27.8417971,10 27.8151943,10 C27.8085435,10.0009501 27.8018928,10.0038004 27.794292,10.0047505 C27.7828908,10.0057006 27.7676892,10.0104511 27.7534376,10.0123513 C27.7315853,10.0161517 27.7135334,10.0180519 27.6926311,10.0237525 C27.6698287,10.0313534 27.6470262,10.037054 27.6242238,10.0475051 C27.6061718,10.056056 27.58907,10.0646069 27.5719682,10.075058 C27.5567665,10.0826589 27.5387146,10.0874094 27.5254132,10.0978605 C27.5216128,10.1007108 27.5149621,10.1016609 27.5130619,10.1045112 L27.5121118,10.1045112 L10.24591,22.1888572 C10.0397379,22.3323226 9.95137845,22.5936006 10.0264365,22.8330263 C10.1014945,23.0715019 10.3247685,23.2349194 10.5746453,23.2349194 L16.3313127,23.2349194 L16.3313127,27.8400633 C16.3313127,27.8609655 16.3427139,27.8799675 16.343664,27.8999197 C16.3484145,27.939824 16.3550652,27.977828 16.3664664,28.014882 C16.3788178,28.0500358 16.3930693,28.0823392 16.409221,28.1146427 C16.427273,28.1459961 16.446275,28.173549 16.4690774,28.2030022 C16.4947302,28.2343556 16.5232332,28.2600083 16.5545866,28.284711 C16.5697882,28.2970623 16.5802394,28.3160643 16.5973412,28.3265154 C16.614443,28.3388668 16.6343952,28.3417171 16.6533972,28.3512181 C16.6714491,28.3616692 16.688551,28.3673698 16.707553,28.3759207 C16.77311,28.3996733 16.8386671,28.415825 16.9061243,28.415825 L16.9080245,28.415825 C16.9764319,28.4148749 17.0419889,28.3996733 17.1075459,28.3749706 C17.1208473,28.3702201 17.1350989,28.3645195 17.1474502,28.3607191 C17.2063565,28.3341162 17.2595622,28.2999126 17.3070673,28.2524075 C17.3146681,28.2438566 17.3194186,28.2362558 17.3270195,28.2277048 C17.350772,28.2020521 17.3745245,28.1782995 17.3925765,28.1469462 L19.4732996,24.8605437 C19.485651,24.8700447 19.495152,24.8823961 19.5084534,24.890947 L25.8408825,28.3455175 C26.0109508,28.4357772 26.2133225,28.4405277 26.3843408,28.3493179 C26.5563092,28.2590582 26.6693714,28.08899 26.6883734,27.8970694 L28.4090079,10.6327679 C28.4156587,10.6137658 28.4109081,10.596664 28.4109081,10.5795622 L28.4109081,10.5795622 Z" id="Page-1" fill="#FFFFFF"></path>
                                </g>
                            </g>
                        </g>
                    </g>
                </g>
            </g>
        </g>
    </g>
</svg>