<?xml version="1.0" encoding="UTF-8"?>
<svg width="30px" height="38px" viewBox="0 0 30 38" version="1.1" xmlns="http://www.w3.org/2000/svg" xmlns:xlink="http://www.w3.org/1999/xlink">
    <!-- Generator: Sketch 46.2 (44496) - http://www.bohemiancoding.com/sketch -->
    <title>custom-timeline-radiology</title>
    <desc>Created with Sketch.</desc>
    <defs></defs>
    <g id="Timeline" stroke="none" stroke-width="1" fill="none" fill-rule="evenodd">
        <g id="Timeline---Details" transform="translate(-650.000000, -1015.000000)">
            <g id="Content" transform="translate(496.000000, 126.000000)">
                <g id="Timeline" transform="translate(0.000000, 129.000000)">
                    <g id="Reports" transform="translate(11.000000, 78.000000)">
                        <g id="X-Ray" transform="translate(0.000000, 678.000000)">
                            <g id="Group-8" transform="translate(137.000000, 1.000000)">
                                <g id="custom-timeline-radiology" transform="translate(0.988743, 1.085393)">
                                    <ellipse id="Oval-7" fill="#FFFFFF" cx="19.8967068" cy="6.7750001" rx="4.77310501" ry="4.7750001"></ellipse>
                                    <path d="M0.0112573059,0.914606805 L38.0112573,0.914606805 L38.0112573,0.914606805 C39.1158268,0.914606805 40.0112573,1.81003731 40.0112573,2.91460681 L40.0112573,38.9146068 L40.0112573,38.9146068 C40.0112573,40.0191763 39.1158268,40.9146068 38.0112573,40.9146068 L0.0112573059,40.9146068 L0.0112573059,0.914606805 Z" id="Rectangle-7"></path>
                                    <path d="M16.56206,12 L24.4246298,12 L24.4246298,12 C25.5291993,12 26.4246298,12.8954305 26.4246298,14 L26.4246298,14 L14.56206,14 L14.56206,14 L14.56206,14 C14.56206,12.8954305 15.4574905,12 16.56206,12 Z" id="Rectangle-20" fill="#FFFFFF"></path>
                                    <path d="M20.2528204,32 L20.5745237,32 L20.5745237,31.4831703 L26.4246298,31.4831703 L26.4246298,39.4854569 L20.5745237,39.4854569 L20.5745237,34.1460542 L20.2528204,34.1460542 L20.2528204,39.5391469 L14.56206,39.5391469 L14.56206,31.4831703 L20.2528204,31.4831703 L20.2528204,32 Z" id="Rectangle-20" fill="#FFFFFF"></path>
                                    <g id="Group-4" transform="translate(5.577392, 11.696811)" fill="#FFFFFF">
                                        <path d="M2,2.64625673 L2,18.9167054 L27.2001718,18.9167054 L27.2001718,2.64625673 L2,2.64625673 Z M1.65,0.646256735 L27.5501718,0.646256735 C28.4614417,0.646256735 29.2001718,1.3849869 29.2001718,2.29625673 L29.2001718,19.2667054 C29.2001718,20.1779752 28.4614417,20.9167054 27.5501718,20.9167054 L1.65,20.9167054 C0.738730163,20.9167054 5.55687579e-16,20.1779752 4.4408921e-16,19.2667054 L0,2.29625673 C-3.33642974e-16,1.3849869 0.738730163,0.646256735 1.65,0.646256735 Z" id="Rectangle-19" fill-rule="nonzero"></path>
                                        <g id="Group-5" transform="translate(6.736237, 3.663222)">
                                            <path d="M9.23727754,9.88560716 L13.090963,9.88560716 L13.090963,9.88560716 C14.1050864,9.88560716 14.9271958,10.7077166 14.9271958,11.7218399 C14.9271958,12.7275772 14.1186265,13.5444631 13.1160812,13.5579043 L13.1160812,12.2619083 L9.23727754,12.2619083 L9.23727754,13.9901274 L6.68662454,13.9901274 L6.68662454,12.2619083 L2.61161679,12.2619083 L2.61161679,13.5579043 C1.6090715,13.5444631 0.800502237,12.7275772 0.800502237,11.7218399 C0.800502237,10.7077166 1.62261163,9.88560716 2.63673496,9.88560716 L2.63673496,9.88560716 L6.68662454,9.88560716 L6.68662454,7.94136075 L2.17393077,7.94136075 L2.17393077,9.23752502 L2.04812273,9.23752502 L2.04812273,9.23752502 C1.0339994,9.23752502 0.211890006,8.41541563 0.211890006,7.4012923 L0.211890006,7.4012923 L0.211890006,7.4012923 C0.211890006,6.38716897 1.0339994,5.56505958 2.04812273,5.56505958 L2.04812273,5.56505958 L6.68662454,5.56505958 L6.68662454,3.62081317 L3.19519815,3.62081317 L3.19519815,4.90316426 C2.28786779,4.79162567 1.58531854,4.01822978 1.58531854,3.08074472 L1.58531854,3.08074472 L1.58531854,3.08074472 C1.58531854,2.06662139 2.40742794,1.244512 3.42155127,1.244512 L3.42155127,1.244512 L6.68662454,1.244512 L6.68662454,0.164375106 L9.23727754,0.164375106 L9.23727754,1.244512 L12.3061467,1.244512 L12.3061467,1.244512 C13.3202701,1.244512 14.1423795,2.06662139 14.1423795,3.08074472 L14.1423795,3.08074472 C14.1423795,4.01822978 13.4398302,4.79162567 12.5324999,4.90316426 L12.5324999,3.62081317 L9.23727754,3.62081317 L9.23727754,5.56505958 L13.6795753,5.56505958 L13.6795753,5.56505958 C14.6936986,5.56505958 15.515808,6.38716897 15.515808,7.4012923 L15.515808,7.4012923 L15.515808,7.4012923 C15.515808,8.41541563 14.6936986,9.23752502 13.6795753,9.23752502 L13.5537672,9.23752502 L13.5537672,7.94136075 L9.23727754,7.94136075 L9.23727754,9.88560716 Z" id="Combined-Shape"></path>
                                        </g>
                                    </g>
                                </g>
                            </g>
                        </g>
                    </g>
                </g>
            </g>
        </g>
    </g>
</svg>