<?xml version="1.0" encoding="UTF-8"?>
<svg width="32px" height="19px" viewBox="0 0 32 19" version="1.1" xmlns="http://www.w3.org/2000/svg" xmlns:xlink="http://www.w3.org/1999/xlink">
    <!-- Generator: Sketch 46.2 (44496) - http://www.bohemiancoding.com/sketch -->
    <title>custom-timeline-medication</title>
    <desc>Created with Sketch.</desc>
    <defs></defs>
    <g id="Timeline" stroke="none" stroke-width="1" fill="none" fill-rule="evenodd">
        <g id="Timeline---Details" transform="translate(-847.000000, -1281.000000)">
            <g id="Content" transform="translate(496.000000, 126.000000)">
                <g id="Timeline" transform="translate(0.000000, 129.000000)">
                    <g id="Reports" transform="translate(11.000000, 78.000000)">
                        <g id="Medication-Orders" transform="translate(198.000000, 934.000000)">
                            <g id="Group-8" transform="translate(136.800000, 0.000000)">
                                <g id="custom-timeline-medication" transform="translate(1.000000, 3.000000)">
                                    <rect id="Rectangle-6" x="-5.68434189e-14" y="0" width="40" height="40"></rect>
                                    <g id="Pill" transform="translate(20.250008, 20.492698) rotate(15.000000) translate(-20.250008, -20.492698) translate(4.250008, 13.992698)" fill="#FFFFFF">
                                        <path d="M6.28571429,0 L25.7142857,0 L25.7142857,8.8817842e-16 C29.1857899,2.50473454e-16 32,2.81421014 32,6.28571429 L32,6.28571429 L32,6.28571429 C32,9.75721843 29.1857899,12.5714286 25.7142857,12.5714286 L6.28571429,12.5714286 L6.28571429,12.5714286 C2.81421014,12.5714286 4.25136644e-16,9.75721843 0,6.28571429 L0,6.28571429 L0,6.28571429 C-4.25136644e-16,2.81421014 2.81421014,6.37704965e-16 6.28571429,0 Z M15.5428571,0.897959184 L15.5428571,11.6734694 L25.6979592,11.6734694 C28.6735342,11.6734694 31.0857143,9.26128926 31.0857143,6.28571429 L31.0857143,6.28571429 C31.0857143,3.31013931 28.6735342,0.897959184 25.6979592,0.897959184 L25.6979592,0.897959184 L15.5428571,0.897959184 Z" id="Rectangle-3"></path>
                                    </g>
                                </g>
                            </g>
                        </g>
                    </g>
                </g>
            </g>
        </g>
    </g>
</svg>