<?xml version="1.0" encoding="UTF-8"?>
<svg width="21px" height="18px" viewBox="0 0 21 18" version="1.1" xmlns="http://www.w3.org/2000/svg" xmlns:xlink="http://www.w3.org/1999/xlink">
    <!-- Generator: Sketch 46.2 (44496) - http://www.bohemiancoding.com/sketch -->
    <title>custom-last-review</title>
    <desc>Created with Sketch.</desc>
    <defs></defs>
    <g id="Smartlist" stroke="none" stroke-width="1" fill="none" fill-rule="evenodd">
        <g id="Smartlist---Queried/FollowUps-w/-Flags-Copy-3" transform="translate(-459.000000, -341.000000)">
            <g id="Smartlist" transform="translate(272.000000, 246.000000)">
                <g id="Priority-Cases">
                    <g id="List-of-Patients" transform="translate(28.000000, 37.000000)">
                        <g id="Patient-in-Smartlist">
                            <g id="BG">
                                <g id="More-Details" transform="translate(8.905473, 55.000000)">
                                    <g id="Last-Review" transform="translate(148.074145, 0.000000)">
                                        <g id="custom-last-review">
                                            <polygon id="Shape" points="0 0 24 0 24 24 0 24"></polygon>
                                            <path d="M19.8845293,10.7252034 L21.5430167,9.16122306 C21.5767843,9.26287225 21.6087883,9.36532582 21.6389921,9.46854746 C21.8739676,10.271575 22,11.1210889 22,12 C22,16.97 17.97,21 13,21 C10.51,21 8.27,19.99 6.64,18.36 L8.06,16.94 C9.32,18.21 11.07,19 13,19 C16.87,19 20,15.87 20,12 C20,11.5645648 19.960375,11.1384978 19.8845293,10.7252034 Z M13,3 C15.1316857,3 17.0904449,3.74137614 18.6324636,4.98031431 C18.6780583,5.01694745 17.2738451,6.45291918 17.2301369,6.41975381 C16.0556069,5.52853099 14.5902816,5 13,5 C9.13,5 6,8.13 6,12 L8,12 L4.96,16.03 L4.89,15.89 L2,12 L4,12 C4,7.03 8.03,3 13,3 Z" id="Shape" fill="#93969C" fill-rule="nonzero"></path>
                                            <path d="M20.6669646,4.54032046 L12.3708571,12.5401384 C11.8407904,13.0512741 11.8254439,13.8953354 12.3365796,14.4254021 C12.8477152,14.9554687 13.6917765,14.9708152 14.2218432,14.4596795 L22.5179507,6.45986157 C23.0480173,5.94872588 23.0633639,5.10466462 22.5522282,4.57459798 C22.0410925,4.04453134 21.1970312,4.02918477 20.6669646,4.54032046 Z" id="Stroke-25-path" fill="#93969C"></path>
                                            <path d="M8.82484472,11.0402213 L11.8809233,13.9298222 C12.41598,14.435732 13.25985,14.4121039 13.7657598,13.8770472 C14.2716696,13.3419906 14.2480414,12.4981206 13.7129848,11.9922107 L10.6569062,9.10260983 C10.1218496,8.59670002 9.27797953,8.62032819 8.77206972,9.15538483 C8.26615991,9.69044146 8.28978809,10.5343115 8.82484472,11.0402213 Z" id="Stroke-23-path" fill="#93969C"></path>
                                        </g>
                                    </g>
                                </g>
                            </g>
                        </g>
                    </g>
                </g>
            </g>
        </g>
    </g>
</svg>