<?xml version="1.0" encoding="UTF-8"?>
<svg width="40px" height="20px" viewBox="0 0 40 20" version="1.1" xmlns="http://www.w3.org/2000/svg" xmlns:xlink="http://www.w3.org/1999/xlink">
    <!-- Generator: Sketch 46.2 (44496) - http://www.bohemiancoding.com/sketch -->
    <title>custom-timeline-labresults</title>
    <desc>Created with Sketch.</desc>
    <defs></defs>
    <g id="Symbols" stroke="none" stroke-width="1" fill="none" fill-rule="evenodd">
        <g id="timeline/lab" transform="translate(-132.000000, -12.000000)" fill-rule="nonzero" fill="#0095F1">
            <g id="Heptic">
                <g id="custom-timeline-labresults" transform="translate(132.000000, 12.000000)">
                    <path d="M8.26299672,13.2653405 L13.1251472,9.89974345 C13.8508378,10.5578759 14.8108974,10.9583503 15.863708,10.9583503 C16.6159931,10.9583503 17.3209214,10.7538758 17.9268256,10.3970311 L21.2547714,13.7531365 C20.89709,14.3665554 20.6919616,15.0813105 20.6919616,15.8443814 C20.6919616,18.1262113 22.5262295,19.976 24.7889137,19.976 C27.0515979,19.976 28.8858658,18.1262113 28.8858658,15.8443814 C28.8858658,14.9605658 28.6106842,14.1415663 28.142012,13.469765 L33.7518377,7.81247155 C34.3466715,8.15182744 35.0340032,8.3455254 35.7661959,8.3455254 C38.0288801,8.3455254 39.863148,6.49573673 39.863148,4.21390675 C39.863148,1.93207678 38.0288801,0.0822881047 35.7661959,0.0822881047 C33.5035117,0.0822881047 31.6692438,1.93207678 31.6692438,4.21390675 C31.6692438,5.02889961 31.9032373,5.78877792 32.3071696,6.42894495 L26.6311328,12.1530098 C26.0773288,11.8713779 25.4514891,11.7127627 24.7889137,11.7127627 C24.0050622,11.7127627 23.2726252,11.934757 22.6500506,12.3198032 L19.3523206,8.99416935 C19.7380704,8.36407362 19.9606602,7.62161688 19.9606602,6.82673162 C19.9606602,4.54490165 18.1263922,2.69511297 15.863708,2.69511297 C13.6010238,2.69511297 11.7667559,4.54490165 11.7667559,6.82673162 C11.7667559,7.32234524 11.8532891,7.79757693 12.0119502,8.23789961 L7.07816379,11.6530833 C6.37051922,11.0655665 5.46406453,10.7127627 4.4758995,10.7127627 C2.21321532,10.7127627 0.378947368,12.5625514 0.378947368,14.8443814 C0.378947368,17.1262113 2.21321532,18.976 4.4758995,18.976 C6.73858368,18.976 8.57285163,17.1262113 8.57285163,14.8443814 C8.57285163,14.2851241 8.46266739,13.7518195 8.26299672,13.2653405 Z" id="Path-2"></path>
                </g>
            </g>
        </g>
    </g>
</svg>