<?xml version="1.0" encoding="UTF-8"?>
<svg width="24px" height="19px" viewBox="0 0 24 19" version="1.1" xmlns="http://www.w3.org/2000/svg" xmlns:xlink="http://www.w3.org/1999/xlink">
    <!-- Generator: Sketch 46.2 (44496) - http://www.bohemiancoding.com/sketch -->
    <title>Grouper Icon - Grey</title>
    <desc>Created with Sketch.</desc>
    <defs></defs>
    <g id="Timeline" stroke="none" stroke-width="1" fill="none" fill-rule="evenodd">
        <g id="Timeline---with-Document" transform="translate(-12.000000, -647.000000)" fill="#93969C">
            <g id="Tools" transform="translate(-1.000000, 96.000000)">
                <g id="Grouper" transform="translate(0.000000, 538.000000)">
                    <g id="Grouper-Icon" transform="translate(9.000000, 8.000000)">
                        <g id="Grouper-Icon---Grey">
                            <g transform="translate(3.148563, 5.839335)">
                                <path d="M8.60242039,2.9680085 L9.20658703,2.9680085 L10.9846448,7.9172248 C10.8055885,8.10224844 10.668863,8.32848792 10.5900789,8.58033263 L8.60242039,8.58033263 L8.60242039,7.69077141 C8.60242039,7.13848666 8.15470514,6.69077141 7.60242039,6.69077141 L1.94959842,6.69077141 L1.94959842,6.69077141 C1.39731367,6.69077141 0.949598417,7.13848666 0.949598417,7.69077141 L0.949598417,10.4698939 C0.949598417,11.0221786 1.39731367,11.4698939 1.94959842,11.4698939 L7.60242039,11.4698939 C8.15470514,11.4698939 8.60242039,11.0221786 8.60242039,10.4698939 L8.60242039,9.58033263 L10.5900789,9.58033263 C10.6718484,9.84172061 10.8160337,10.075526 11.0051815,10.2642956 L9.20658703,15.2706757 L8.60242039,15.2706757 L8.60242039,14.3815428 C8.60242039,13.8292581 8.15470514,13.3815428 7.60242039,13.3815428 L1.94959842,13.3815428 L1.94959842,13.3815428 C1.39731367,13.3815428 0.949598417,13.8292581 0.949598417,14.3815428 L0.949598417,14.3815428 L0.949598417,17.1606653 C0.949598417,17.71295 1.39731367,18.1606653 1.94959842,18.1606653 L7.60242039,18.1606653 C8.15470514,18.1606653 8.60242039,17.71295 8.60242039,17.1606653 L8.60242039,16.2706757 L9.90990272,16.2706757 L11.9009164,10.7286975 C11.9938026,10.7446915 12.0893092,10.7530255 12.1867622,10.7530255 C12.9363991,10.7530255 13.5708593,10.2598955 13.7834455,9.58033263 L16.2490163,9.58033263 L16.2490163,10.9478061 C16.2490163,11.5000908 16.6967315,11.9478061 17.2490163,11.9478061 L17.2490163,11.9478061 L23.8514367,11.9478061 C24.4037214,11.9478061 24.8514367,11.5000908 24.8514367,10.9478061 L24.8514367,7.21285917 C24.8514367,6.66057442 24.4037214,6.21285917 23.8514367,6.21285917 L17.2490163,6.21285917 C16.6967315,6.21285917 16.2490163,6.66057442 16.2490163,7.21285917 L16.2490163,8.58033263 L13.7834455,8.58033263 C13.5708593,7.90076981 12.9363991,7.40763978 12.1867622,7.40763978 C12.0800788,7.40763978 11.975728,7.41762721 11.8745939,7.43671808 L9.90990272,1.9680085 L8.60242039,1.9680085 L8.60242039,1 C8.60242039,0.44771525 8.15470514,-8.14025064e-16 7.60242039,-2.22044605e-16 L1.94437173,-2.22044605e-16 L1.94437173,0 C1.39208698,1.01453063e-16 0.944371725,0.44771525 0.944371725,1 L0.944371725,1 L0.944371725,3.77912244 C0.944371725,4.33140719 1.39208698,4.77912244 1.94437173,4.77912244 L1.94437173,4.77912244 L7.60242039,4.77912244 C8.15470514,4.77912244 8.60242039,4.33140719 8.60242039,3.77912244 L8.60242039,3.77912244 L8.60242039,2.9680085 Z" id="Oval-10"></path>
                            </g>
                        </g>
                    </g>
                </g>
            </g>
        </g>
    </g>
</svg>