<?xml version="1.0" encoding="UTF-8"?>
<svg width="32px" height="15px" viewBox="0 0 32 15" version="1.1" xmlns="http://www.w3.org/2000/svg" xmlns:xlink="http://www.w3.org/1999/xlink">
    <!-- Generator: Sketch 46.2 (44496) - http://www.bohemiancoding.com/sketch -->
    <title>Group</title>
    <desc>Created with Sketch.</desc>
    <defs></defs>
    <g id="Timeline" stroke="none" stroke-width="1" fill="none" fill-rule="evenodd">
        <g id="Timeline---with-Document" transform="translate(-7.000000, -594.000000)" fill="#93969C">
            <g id="Tools" transform="translate(-1.000000, 96.000000)">
                <g id="Labs-and-Vitals" transform="translate(0.000000, 484.000000)">
                    <g transform="translate(7.000000, 8.000000)" id="Group">
                        <g transform="translate(17.666052, 13.602016) rotate(10.000000) translate(-17.666052, -13.602016) translate(2.166052, 4.102016)">
                            <path d="M24.9762453,6.23086148 C25.5086511,6.65391307 26.1824811,6.90663753 26.9153381,6.90663753 C28.6381191,6.90663753 30.034709,5.51004765 30.034709,3.78726671 C30.034709,2.06448578 28.6381191,0.667895892 26.9153381,0.667895892 C25.1925572,0.667895892 23.7959673,2.06448578 23.7959673,3.78726671 C23.7959673,4.41595319 23.9819519,5.00120064 24.3019027,5.49099055 L20.0909494,9.70194386 C19.5535935,9.26316683 18.8672151,9 18.1193708,9 C17.0953498,9 16.1865758,9.49343112 15.6178414,10.2555007 L12.9536933,8.42389887 C13.1366763,8.02699317 13.2387416,7.58510131 13.2387416,7.11937082 C13.2387416,5.39658989 11.8421518,4 10.1193708,4 C8.39658989,4 7,5.39658989 7,7.11937082 C7,7.89816878 7.2854029,8.61030731 7.75732383,9.15690156 L5.01949187,12.8073442 C4.49588411,12.4096684 3.84278632,12.1736482 3.13456307,12.1736482 C1.41178213,12.1736482 0.015192247,13.5702381 0.015192247,15.293019 C0.015192247,17.0157999 1.41178213,18.4123898 3.13456307,18.4123898 C4.857344,18.4123898 6.25393389,17.0157999 6.25393389,15.293019 C6.25393389,14.6445781 6.0560777,14.0423489 5.71744305,13.5434093 L8.52445,9.80073333 C8.99114036,10.0789272 9.53659227,10.2387416 10.1193708,10.2387416 C11.0167787,10.2387416 11.8256768,9.85978584 12.3947697,9.25316943 L15.1536002,11.1498654 C15.0539057,11.4550322 15,11.7809063 15,12.1193708 C15,13.8421518 16.3965899,15.2387416 18.1193708,15.2387416 C19.8421518,15.2387416 21.2387416,13.8421518 21.2387416,12.1193708 C21.2387416,11.5058818 21.0616401,10.9337571 20.7557736,10.4513332 L24.9762453,6.23086148 Z" id="Oval-2"></path>
                        </g>
                    </g>
                </g>
            </g>
        </g>
    </g>
</svg>