<?xml version="1.0" encoding="UTF-8"?>
<svg width="16px" height="21px" viewBox="0 0 16 21" version="1.1" xmlns="http://www.w3.org/2000/svg" xmlns:xlink="http://www.w3.org/1999/xlink">
    <!-- Generator: Sketch 46.2 (44496) - http://www.bohemiancoding.com/sketch -->
    <title>query_notaddressed</title>
    <desc>Created with Sketch.</desc>
    <defs></defs>
    <g id="Opportunities" stroke="none" stroke-width="1" fill="none" fill-rule="evenodd">
        <g id="Opportunities---Possible-Condition-Open" transform="translate(-219.000000, -912.000000)" fill="#532D6D">
            <g id="Content" transform="translate(195.000000, 96.000000)">
                <g id="Possible-Conditions" transform="translate(0.000000, 30.000000)">
                    <g id="Opportunities" transform="translate(0.000000, 30.000000)">
                        <g id="Possible-Conditions" transform="translate(0.000000, 401.000000)">
                            <g id="Condition" transform="translate(22.000000, 340.000000)">
                                <g id="query_notaddressed" transform="translate(0.000000, 8.000000)">
                                    <g id="Icon/-Sent" transform="translate(3.000000, 7.000000)">
                                        <g id="Btn_icon-/-Primary-/--Default">
                                            <g id="-g-icn_section_queried-/-default">
                                                <path d="M12.7327181,13.781478 L8.21628138,11.318952 L13.8687924,2.39210178 L12.7327181,13.781478 Z M5.41943382,9.84236507 L1.95626479,9.84236507 L11.3954319,3.23487073 L5.41943382,9.84236507 Z M14.9940321,0.420997531 C14.9924843,0.404745788 14.9924843,0.388494045 14.9886148,0.373016195 C14.9739109,0.328130429 14.9684936,0.311878686 14.9615286,0.29485305 C14.9421813,0.251515069 14.9344424,0.238358896 14.9243817,0.223654938 C14.915095,0.210498766 14.9065822,0.197342593 14.8965216,0.184960312 C14.8825916,0.167160784 14.8678876,0.149361256 14.8516359,0.133109513 C14.8098457,0.100606028 14.8021067,0.0944148875 14.7943678,0.0889976398 C14.7456126,0.0541724764 14.7254914,0.0503030138 14.7061441,0.0417901961 C14.6914401,0.0355990559 14.67751,0.0286340232 14.6612583,0.0247645606 C14.6016686,0.00928671024 14.5861907,0.00928671024 14.5683912,0.00696503268 C14.5529133,0.00464335512 14.5327921,0 14.5111231,0 C14.4848108,0.00464335512 14.4724285,0.00851281772 14.4608201,0.0100606028 C14.4430206,0.0131561728 14.4283166,0.0147039579 14.411291,0.019347313 C14.3927176,0.0255384532 14.3741442,0.0301818083 14.3555707,0.038694626 C14.3408668,0.0456596587 14.3269367,0.0526246914 14.3130067,0.0611375091 C14.2719904,0.0820326071 14.2665731,0.0828064997 14.2650253,0.0851281772 L0.200302659,9.92826714 C0.0323679823,10.0451249 -0.0396040221,10.2579454 0.021533487,10.4529663 C0.0826709961,10.6472133 0.264535738,10.7803228 0.468069471,10.7803228 L5.15708425,10.7803228 L5.15708425,14.5313799 C5.15708425,14.5484055 5.16637096,14.5638833 5.16714485,14.5801351 C5.17101432,14.6126386 5.17643156,14.6435943 5.18571827,14.6737761 C5.19577888,14.7024101 5.20738727,14.7287224 5.22054344,14.7550348 C5.2352474,14.7805732 5.25072525,14.8030161 5.26929867,14.8270068 C5.29019376,14.8525452 5.31341054,14.8734403 5.33894899,14.8935616 C5.35133127,14.9036222 5.35984409,14.9191 5.37377416,14.9276128 C5.38770422,14.9376734 5.40395597,14.9399951 5.41943382,14.947734 C5.43413777,14.9562468 5.44806784,14.9608902 5.46354569,14.9678552 C5.51694427,14.9872025 5.57034286,15.0003587 5.62528923,15.0003587 C5.68255727,14.9995848 5.73595586,14.9872025 5.78935444,14.9670813 C5.86983926,14.933804 5.91317724,14.9059438 5.95187187,14.8672492 C5.98747093,14.8262329 6.00681824,14.8068856 6.0215222,14.7813471 L7.71634682,12.1044529 C7.72640742,12.1121918 12.9029745,14.9430907 12.9029745,14.9430907 C13.0415012,15.0166105 13.2063404,15.0204799 13.345641,14.9461862 C13.4857156,14.8726665 13.5778088,14.7341397 13.5932866,14.5778134 L14.994806,0.515412418 C14.9963538,0.454274909 14.9963538,0.438023166 14.9940321,0.420997531 Z" id="Page-1"></path>
                                            </g>
                                        </g>
                                        <polygon id="Line" fill-rule="nonzero" points="4.4 14.8 0.8 19.6 1.6 20.2 5.2 15.4"></polygon>
                                        <polygon id="Line" fill-rule="nonzero" points="8.2763932 13.8291796 5.82917961 18.7236068 6.7236068 19.1708204 9.17082039 14.2763932"></polygon>
                                        <polygon id="Line" fill-rule="nonzero" points="3.5 11.7928932 -0.207106781 15.5 0.5 16.2071068 4.20710678 12.5"></polygon>
                                    </g>
                                </g>
                            </g>
                        </g>
                    </g>
                </g>
            </g>
        </g>
    </g>
</svg>