<?xml version="1.0" encoding="UTF-8"?>
<svg width="18px" height="18px" viewBox="0 0 18 18" version="1.1" xmlns="http://www.w3.org/2000/svg" xmlns:xlink="http://www.w3.org/1999/xlink">
    <!-- Generator: Sketch 46.2 (44496) - http://www.bohemiancoding.com/sketch -->
    <title>Inbox grey</title>
    <desc>Created with Sketch.</desc>
    <defs></defs>
    <g id="Opportunities" stroke="none" stroke-width="1" fill="none" fill-rule="evenodd">
        <g id="Opportunities---Possible-Condition-Open" transform="translate(-14.000000, -702.000000)">
            <g id="Tools" transform="translate(-1.000000, 96.000000)">
                <g id="Queries" transform="translate(0.000000, 592.000000)">
                    <g id="Queries-Icon" transform="translate(9.000000, 8.000000)">
                        <g id="Inbox-grey" transform="translate(3.000000, 3.000000)">
                            <path d="M19,3 L4.99,3 C3.88,3 3.01,3.89 3.01,5 L3,19 C3,20.1 3.88,21 4.99,21 L19,21 C20.1,21 21,20.1 21,19 L21,5 C21,3.89 20.1,3 19,3 Z M19,15 L15,15 C15,16.66 13.65,18 12,18 C10.35,18 9,16.66 9,15 L4.99,15 L4.99,5 L19,5 L19,15 Z" id="Shape" fill="#93969C" fill-rule="nonzero"></path>
                            <polygon id="Shape" points="0 0 24 0 24 24 0 24"></polygon>
                        </g>
                    </g>
                </g>
            </g>
        </g>
    </g>
</svg>