<?xml version="1.0" encoding="UTF-8"?>
<svg width="15px" height="15px" viewBox="0 0 15 15" version="1.1" xmlns="http://www.w3.org/2000/svg" xmlns:xlink="http://www.w3.org/1999/xlink">
    <!-- Generator: Sketch 46.2 (44496) - http://www.bohemiancoding.com/sketch -->
    <title>icon_queries_complete1</title>
    <desc>Created with Sketch.</desc>
    <defs></defs>
    <g id="Opportunities" stroke="none" stroke-width="1" fill="none" fill-rule="evenodd">
        <g id="Opportunities---Possible-Condition-Open-Copy-3" transform="translate(-219.000000, -763.000000)" fill="#B5B5B5">
            <g id="Content" transform="translate(195.000000, 96.000000)">
                <g id="Possible-Conditions" transform="translate(0.000000, 30.000000)">
                    <g id="Opportunities" transform="translate(0.000000, 30.000000)">
                        <g id="Possible-Conditions" transform="translate(0.000000, 401.000000)">
                            <g id="Condition" transform="translate(22.000000, 190.000000)">
                                <g id="icon_queries_complete1" transform="translate(0.000000, 9.000000)">
                                    <path d="M14.7327181,20.781478 L10.2162814,18.318952 L15.8687924,9.39210178 L14.7327181,20.781478 Z M7.41943382,16.8423651 L3.95626479,16.8423651 L13.3954319,10.2348707 L7.41943382,16.8423651 Z M16.9963538,7.47207444 C16.9963538,7.45427491 16.9963538,7.43802317 16.9940321,7.42099753 C16.9924843,7.40474579 16.9924843,7.38849405 16.9886148,7.37301619 C16.9862932,7.36295559 16.9808759,7.35444277 16.9793281,7.34592996 C16.9739109,7.32813043 16.9684936,7.31187869 16.9615286,7.29485305 C16.9576591,7.28556634 16.9561113,7.27550574 16.951468,7.26544513 C16.9421813,7.25151507 16.9344424,7.2383589 16.9243817,7.22365494 C16.915095,7.21049877 16.9065822,7.19734259 16.8965216,7.18496031 C16.8825916,7.16716078 16.8678876,7.14936126 16.8516359,7.13310951 C16.8469925,7.12924005 16.8454447,7.12537059 16.8423491,7.12227502 C16.8346102,7.11530999 16.8260974,7.1137622 16.8183585,7.10834495 C16.8098457,7.10060603 16.8021067,7.09441489 16.7943678,7.08899764 C16.7866289,7.08435428 16.7843072,7.07816314 16.77889,7.07351979 C16.7765683,7.0727459 16.7742466,7.0727459 16.771151,7.07119811 C16.7680555,7.06887643 16.7665077,7.06578086 16.7634121,7.06500697 C16.7456126,7.05417248 16.7254914,7.05030301 16.7061441,7.0417902 C16.6914401,7.03559906 16.67751,7.02863402 16.6612583,7.02476456 C16.6473282,7.01934731 16.6326243,7.01547785 16.6186942,7.01315617 C16.6016686,7.00928671 16.5861907,7.00928671 16.5683912,7.00696503 C16.5529133,7.00464336 16.5327921,7 16.5111231,7 C16.5057059,7.00077389 16.5002886,7.00309557 16.4940975,7.00386946 C16.4848108,7.00464336 16.4724285,7.00851282 16.4608201,7.0100606 C16.4430206,7.01315617 16.4283166,7.01470396 16.411291,7.01934731 C16.3927176,7.02553845 16.3741442,7.03018181 16.3555707,7.03869463 C16.3408668,7.04565966 16.3269367,7.05262469 16.3130067,7.06113751 C16.3006244,7.06732865 16.2859204,7.07119811 16.2750859,7.07971093 C16.2719904,7.08203261 16.2665731,7.0828065 16.2650253,7.08512818 L16.2642514,7.08512818 L2.20030266,16.9282671 C2.03236798,17.0451249 1.96039598,17.2579454 2.02153349,17.4529663 C2.082671,17.6472133 2.26453574,17.7803228 2.46806947,17.7803228 L7.15708425,17.7803228 L7.15708425,21.5313799 C7.15708425,21.5484055 7.16637096,21.5638833 7.16714485,21.5801351 C7.17101432,21.6126386 7.17643156,21.6435943 7.18571827,21.6737761 C7.19577888,21.7024101 7.20738727,21.7287224 7.22054344,21.7550348 C7.2352474,21.7805732 7.25072525,21.8030161 7.26929867,21.8270068 C7.29019376,21.8525452 7.31341054,21.8734403 7.33894899,21.8935616 C7.35133127,21.9036222 7.35984409,21.9191 7.37377416,21.9276128 C7.38770422,21.9376734 7.40395597,21.9399951 7.41943382,21.947734 C7.43413777,21.9562468 7.44806784,21.9608902 7.46354569,21.9678552 C7.51694427,21.9872025 7.57034286,22.0003587 7.62528923,22.0003587 L7.62683701,22.0003587 C7.68255727,21.9995848 7.73595586,21.9872025 7.78935444,21.9670813 C7.80018894,21.9632119 7.81179732,21.9585685 7.82185793,21.955473 C7.86983926,21.933804 7.91317724,21.9059438 7.95187187,21.8672492 C7.95806301,21.8602842 7.96193247,21.854093 7.96812361,21.847128 C7.98747093,21.8262329 8.00681824,21.8068856 8.0215222,21.7813471 L9.71634682,19.1044529 C9.72640742,19.1121918 9.73414634,19.1222524 9.74498084,19.1292175 L14.9029745,21.9430907 C15.0415012,22.0166105 15.2063404,22.0204799 15.345641,21.9461862 C15.4857156,21.8726665 15.5778088,21.7341397 15.5932866,21.5778134 L16.994806,7.51541242 C17.0002232,7.49993457 16.9963538,7.4860045 16.9963538,7.47207444 L16.9963538,7.47207444 Z" id="white-plane-alone"></path>
                                </g>
                            </g>
                        </g>
                    </g>
                </g>
            </g>
        </g>
    </g>
</svg>