<?xml version="1.0" encoding="UTF-8"?>
<svg width="19px" height="19px" viewBox="0 0 19 19" version="1.1" xmlns="http://www.w3.org/2000/svg" xmlns:xlink="http://www.w3.org/1999/xlink">
    <!-- Generator: Sketch 46.2 (44496) - http://www.bohemiancoding.com/sketch -->
    <title>Custom - Query </title>
    <desc>Created with Sketch.</desc>
    <defs></defs>
    <g id="Symbols" stroke="none" stroke-width="1" fill="none" fill-rule="evenodd">
        <g id="Tool-Bar" transform="translate(-973.000000, -15.000000)" fill="#333E48">
            <g id="Query-Condition">
                <g transform="translate(957.000000, 8.000000)">
                    <g id="Custom---Query-" transform="translate(16.000000, 7.000000)">
                        <g id="-g-icn_section_queried-/-default">
                            <path d="M15.6318601,16.9194145 L10.0870655,13.8961903 L17.0266097,2.93676495 L15.6318601,16.9194145 Z M6.65339721,12.0833959 L2.40169123,12.0833959 L13.990084,3.97142592 L6.65339721,12.0833959 Z M18.4109081,0.579562155 C18.4109081,0.557709812 18.4109081,0.537757672 18.4080578,0.51685543 C18.4061576,0.496903291 18.4061576,0.476951151 18.4014071,0.457949113 C18.3985568,0.445597788 18.3919061,0.435146667 18.3900059,0.424695547 C18.3833552,0.402843203 18.3767045,0.382891063 18.3681536,0.361988822 C18.3634031,0.350587599 18.3615028,0.338236274 18.3558022,0.32588495 C18.344401,0.308783116 18.3349,0.292631383 18.3225487,0.274579447 C18.3111474,0.258427715 18.3006963,0.242275983 18.288345,0.227074353 C18.2712432,0.205222009 18.2531912,0.183369666 18.2332391,0.163417526 C18.2275385,0.158667016 18.2256383,0.153916507 18.2218379,0.150116099 C18.2123369,0.141565182 18.2018857,0.139664978 18.1923847,0.133014265 C18.1819336,0.123513246 18.1724326,0.115912431 18.1629316,0.109261718 C18.1534305,0.103561106 18.1505802,0.0959602913 18.1439295,0.0902596799 C18.1410792,0.089309578 18.1382289,0.089309578 18.1344285,0.0874093743 C18.1306281,0.0845590686 18.1287279,0.080758661 18.1249275,0.0798085591 C18.1030751,0.0665071326 18.0783725,0.0617566231 18.0546199,0.0513055023 C18.036568,0.0437046871 18.0194662,0.0351537701 17.999514,0.0304032606 C17.9824122,0.0237525474 17.9643603,0.0190020379 17.9472584,0.0161517322 C17.9263562,0.0114012227 17.9073541,0.0114012227 17.8855018,0.00855091705 C17.8664998,0.00570061136 17.8417971,0 17.8151943,0 C17.8085435,0.000950101894 17.8018928,0.00380040758 17.794292,0.00475050947 C17.7828908,0.00570061136 17.7676892,0.0104511208 17.7534376,0.0123513246 C17.7315853,0.0161517322 17.7135334,0.018051936 17.6926311,0.0237525474 C17.6698287,0.0313533625 17.6470262,0.0370539739 17.6242238,0.0475050947 C17.6061718,0.0560560117 17.58907,0.0646069288 17.5719682,0.0750580496 C17.5567665,0.0826588648 17.5387146,0.0874093743 17.5254132,0.0978604951 C17.5216128,0.100710801 17.5149621,0.101660903 17.5130619,0.104511208 L17.5121118,0.104511208 L0.245910034,12.1888572 C0.0397379229,12.3323226 -0.0486215533,12.5936006 0.0264364964,12.8330263 C0.101494546,13.0715019 0.324768491,13.2349194 0.574645289,13.2349194 L6.33131267,13.2349194 L6.33131267,17.8400633 C6.33131267,17.8609655 6.34271389,17.8799675 6.34366399,17.8999197 C6.3484145,17.939824 6.35506521,17.977828 6.36646644,18.014882 C6.37881776,18.0500358 6.39306929,18.0823392 6.40922102,18.1146427 C6.42727296,18.1459961 6.44627499,18.173549 6.46907744,18.2030022 C6.49473019,18.2343556 6.52323325,18.2600083 6.55458661,18.284711 C6.56978824,18.2970623 6.58023936,18.3160643 6.5973412,18.3265154 C6.61444303,18.3388668 6.63439517,18.3417171 6.65339721,18.3512181 C6.67144914,18.3616692 6.68855098,18.3673698 6.70755302,18.3759207 C6.77311005,18.3996733 6.83866708,18.415825 6.90612431,18.415825 L6.90802452,18.415825 C6.97643185,18.4148749 7.04198888,18.3996733 7.10754591,18.3749706 C7.12084734,18.3702201 7.13509887,18.3645195 7.14745019,18.3607191 C7.20635651,18.3341162 7.25956222,18.2999126 7.30706731,18.2524075 C7.31466813,18.2438566 7.31941864,18.2362558 7.32701945,18.2277048 C7.350772,18.2020521 7.37452455,18.1782995 7.39257648,18.1469462 L9.47329963,14.8605437 C9.48565095,14.8700447 9.49515197,14.8823961 9.5084534,14.890947 L15.8408825,18.3455175 C16.0109508,18.4357772 16.2133225,18.4405277 16.3843408,18.3493179 C16.5563092,18.2590582 16.6693714,18.08899 16.6883734,17.8970694 L18.4090079,0.632767861 C18.4156587,0.613765824 18.4109081,0.596663989 18.4109081,0.579562155 L18.4109081,0.579562155 Z" id="Page-1"></path>
                        </g>
                    </g>
                </g>
            </g>
        </g>
    </g>
</svg>