<?xml version="1.0" encoding="UTF-8"?>
<svg width="16px" height="16px" viewBox="0 0 16 16" version="1.1" xmlns="http://www.w3.org/2000/svg" xmlns:xlink="http://www.w3.org/1999/xlink">
    <!-- Generator: Sketch 46.2 (44496) - http://www.bohemiancoding.com/sketch -->
    <title>Custom - Stopped</title>
    <desc>Created with Sketch.</desc>
    <defs></defs>
    <g id="Opportunities" stroke="none" stroke-width="1" fill="none" fill-rule="evenodd">
        <g id="Opportunities---Possible-Condition-Open" transform="translate(-223.000000, -485.000000)" fill-rule="nonzero" fill="#0095F1">
            <g id="Content" transform="translate(195.000000, 96.000000)">
                <g id="Possible-Conditions" transform="translate(0.000000, 30.000000)">
                    <g id="Opportunities" transform="translate(0.000000, 30.000000)">
                        <g id="Documentation-Warnings" transform="translate(17.000000, 190.000000)">
                            <g id="Custom---Stopped" transform="translate(8.000000, 137.000000)">
                                <path d="M11.0993524,2.91215823 L5.94837593,5.04576253 L3.81477163,10.196739 L5.94837593,15.3477154 L11.0993524,17.4813197 L16.2503288,15.3477154 L18.3839331,10.196739 L16.2503288,5.04576253 L11.0993524,2.91215823 Z M17.0156957,4.28039566 L19.4663253,10.196739 L17.0156957,16.1130823 L11.0993524,18.5637119 L5.18300906,16.1130823 L2.73237943,10.196739 L5.18300906,4.28039566 L11.0993524,1.82976603 L17.0156957,4.28039566 Z" id="Polygon" transform="translate(11.099352, 10.196739) rotate(-23.000000) translate(-11.099352, -10.196739) "></path>
                                <polygon id="Line-3" points="8 7.03619076 8 13.3043886 10 13.3043886 10 7.03619076"></polygon>
                                <polygon id="Line-3" points="12 7.03619076 12 13.3043886 14 13.3043886 14 7.03619076"></polygon>
                            </g>
                        </g>
                    </g>
                </g>
            </g>
        </g>
    </g>
</svg>