<?xml version="1.0" encoding="UTF-8"?>
<svg width="21px" height="28px" viewBox="0 0 21 28" version="1.1" xmlns="http://www.w3.org/2000/svg" xmlns:xlink="http://www.w3.org/1999/xlink">
    <!-- Generator: Sketch 46.2 (44496) - http://www.bohemiancoding.com/sketch -->
    <title>Rectangle 16</title>
    <desc>Created with Sketch.</desc>
    <defs></defs>
    <g id="Timeline" stroke="none" stroke-width="1" fill="none" fill-rule="evenodd">
        <g id="Timeline---with-Document" transform="translate(-13.000000, -428.000000)" fill="#93969C">
            <g id="Tools" transform="translate(-1.000000, 96.000000)">
                <g id="Timeline" transform="translate(0.000000, 323.000000)">
                    <g id="Timeline-Icon" transform="translate(9.000000, 8.000000)">
                        <g transform="translate(5.000000, 1.000000)" id="Rectangle-16">
                            <path d="M8,14 L10,14 L10,15 L8,15 L8,14 Z M1,5 L7,5 L7,5 C7.55228475,5 8,5.44771525 8,6 L8,9 L8,9 C8,9.55228475 7.55228475,10 7,10 L1,10 L1,10 C0.44771525,10 6.76353751e-17,9.55228475 0,9 L0,6 L0,6 C-6.76353751e-17,5.44771525 0.44771525,5 1,5 Z M11,2.91464715 L11,26 L10.5,28 L10,26 L10,2.91464715 C9.41740381,2.70872894 9,2.15310941 9,1.5 C9,0.671572875 9.67157288,0 10.5,0 C11.3284271,0 12,0.671572875 12,1.5 C12,2.15310941 11.5825962,2.70872894 11,2.91464715 Z M8,7 L10,7 L10,8 L8,8 L8,7 Z M8,21 L10,21 L10,22 L8,22 L8,21 Z M11,10 L13,10 L13,11 L11,11 L11,10 Z M11,17 L13,17 L13,18 L11,18 L11,17 Z M1,12 L7,12 L7,12 C7.55228475,12 8,12.4477153 8,13 L8,16 L8,16 C8,16.5522847 7.55228475,17 7,17 L1,17 L1,17 C0.44771525,17 6.76353751e-17,16.5522847 0,16 L0,13 L0,13 C-6.76353751e-17,12.4477153 0.44771525,12 1,12 Z M14,8 L20,8 L20,8 C20.5522847,8 21,8.44771525 21,9 L21,12 L21,12 C21,12.5522847 20.5522847,13 20,13 L14,13 L14,13 C13.4477153,13 13,12.5522847 13,12 L13,9 L13,9 C13,8.44771525 13.4477153,8 14,8 Z M14,15 L20,15 L20,15 C20.5522847,15 21,15.4477153 21,16 L21,19 L21,19 C21,19.5522847 20.5522847,20 20,20 L14,20 L14,20 C13.4477153,20 13,19.5522847 13,19 L13,16 L13,16 C13,15.4477153 13.4477153,15 14,15 Z M1,19 L7,19 L7,19 C7.55228475,19 8,19.4477153 8,20 L8,23 L8,23 C8,23.5522847 7.55228475,24 7,24 L1,24 L1,24 C0.44771525,24 6.76353751e-17,23.5522847 0,23 L0,20 L0,20 C-6.76353751e-17,19.4477153 0.44771525,19 1,19 Z"></path>
                        </g>
                    </g>
                </g>
            </g>
        </g>
    </g>
</svg>