<?xml version="1.0" encoding="UTF-8"?>
<svg width="17px" height="13px" viewBox="0 0 17 13" version="1.1" xmlns="http://www.w3.org/2000/svg" xmlns:xlink="http://www.w3.org/1999/xlink">
    <!-- Generator: Sketch 46.2 (44496) - http://www.bohemiancoding.com/sketch -->
    <title>Zs</title>
    <desc>Created with Sketch.</desc>
    <defs></defs>
    <g id="Smartlist" stroke="none" stroke-width="1" fill="none" fill-rule="evenodd">
        <g id="Smartlist---Default" transform="translate(-877.000000, -762.000000)">
            <g id="Smartlist" transform="translate(271.000000, 206.000000)">
                <g id="Low-Priority-Cases" transform="translate(0.000000, 445.000000)">
                    <g id="Patient-in-Smartlist" transform="translate(29.000000, 93.000000)">
                        <g id="Quiet-Period" transform="translate(572.000000, 11.000000)">
                            <g id="Zs" transform="translate(2.000000, 0.894291)">
                                <rect id="Rectangle-7" x="0" y="1" width="21" height="21"></rect>
                                <polygon id="z" fill="#532D6D" points="3.35546875 13.3315026 7.69628906 8.08150265 3.67675781 8.08150265 3.67675781 6.98091671 9.35058594 6.98091671 9.35058594 7.98579952 5.03710938 13.2016198 9.48046875 13.2016198 9.48046875 14.3022058 3.35546875 14.3022058"></polygon>
                                <polygon id="z" fill="#532D6D" points="9.3046875 15.5713423 13.0253906 11.0713423 9.58007812 11.0713423 9.58007812 10.1279829 14.4433594 10.1279829 14.4433594 10.989311 10.7460938 15.4600142 14.5546875 15.4600142 14.5546875 16.4033735 9.3046875 16.4033735"></polygon>
                                <polygon id="z" fill="#532D6D" points="15.2539062 18.1107927 18.3544922 14.3607927 15.4833984 14.3607927 15.4833984 13.5746599 19.5361328 13.5746599 19.5361328 14.2924333 16.4550781 18.0180192 19.6289062 18.0180192 19.6289062 18.804152 15.2539062 18.804152"></polygon>
                            </g>
                        </g>
                    </g>
                </g>
            </g>
        </g>
    </g>
</svg>