<?xml version="1.0" encoding="UTF-8"?>
<svg width="726px" height="607px" viewBox="0 0 726 607" version="1.1" xmlns="http://www.w3.org/2000/svg" xmlns:xlink="http://www.w3.org/1999/xlink">
    <!-- Generator: Sketch 46.2 (44496) - http://www.bohemiancoding.com/sketch -->
    <title>Logo</title>
    <desc>Created with Sketch.</desc>
    <defs></defs>
    <g id="Page-1" stroke="none" stroke-width="1" fill="none" fill-rule="evenodd">
        <g id="Artboard-2-Copy-2" transform="translate(-204.000000, -283.000000)" fill="#86BBD8">
            <g id="Logo" transform="translate(195.000000, 262.000000)">
                <path d="M283.775,560.06 C284.295003,558.499992 285.421658,556.420013 287.155,553.82 C288.888342,551.219987 290.72999,548.620013 292.68,546.02 C294.63001,543.419987 296.471658,541.058344 298.205,538.935 C299.938342,536.811656 301.064997,535.490003 301.585,534.97 C302.538338,533.929995 303.621661,533.453333 304.835,533.54 C307.868349,531.893325 310.619988,531.481663 313.09,532.305 C315.560012,533.128337 317.661658,534.666655 319.395,536.92 C321.128342,539.173345 322.514995,541.94665 323.555,545.24 C324.595005,548.53335 325.244999,551.848317 325.505,555.185 C325.765001,558.521683 325.613336,561.619986 325.05,564.48 C324.486664,567.340014 323.511674,569.463326 322.125,570.85 C320.911661,572.150007 319.655007,572.973332 318.355,573.32 C317.054994,573.666668 315.625008,573.753334 314.065,573.58 C313.371663,573.406666 312.72167,573.255001 312.115,573.125 C311.50833,572.994999 310.858337,572.843334 310.165,572.67 C309.55833,572.583333 309.255,572.23667 309.255,571.63 L309.775,561.75 L310.165,556.81 C310.338334,555.336659 310.446666,553.798341 310.49,552.195 C310.533334,550.591659 310.598333,549.053341 310.685,547.58 L310.685,546.54 C311.031668,544.026654 310.880003,542.488336 310.23,541.925 C309.579997,541.361664 308.756672,541.274998 307.76,541.665 C306.763328,542.055002 305.831671,542.704995 304.965,543.615 C304.098329,544.525005 303.621667,545.239997 303.535,545.76 C303.188332,546.973339 302.581671,548.099995 301.715,549.14 C300.848329,549.920004 300.133336,550.786662 299.57,551.74 C299.006664,552.693338 298.508335,553.646662 298.075,554.6 C297.46833,556.073341 296.840003,557.459993 296.19,558.76 C295.539997,560.060006 294.955003,561.403326 294.435,562.79 C292.874992,566.516685 291.835003,570.156649 291.315,573.71 C290.794997,576.656681 290.405001,579.47332 290.145,582.16 C289.971666,583.460006 289.755001,584.824993 289.495,586.255 C289.234999,587.685007 289.018334,589.093326 288.845,590.48 C288.758333,591.606672 288.758333,592.668328 288.845,593.665 C288.931667,594.661672 289.018333,595.723328 289.105,596.85 L289.495,599.84 C290.015003,603.480018 290.686663,605.841661 291.51,606.925 C292.333337,608.008339 293.178329,608.333335 294.045,607.9 C294.911671,607.466664 295.734996,606.556674 296.515,605.17 C297.295004,603.783326 297.944997,602.440006 298.465,601.14 C298.898335,599.926661 299.244999,598.778339 299.505,597.695 C299.765001,596.611661 300.068332,595.506672 300.415,594.38 C300.761668,593.426662 300.718335,592.473338 300.285,591.52 C299.764997,590.479995 299.764997,589.483338 300.285,588.53 C300.805003,587.576662 301.671661,586.840003 302.885,586.32 C304.185006,585.799997 305.50666,585.431668 306.85,585.215 C308.19334,584.998332 309.514994,584.803334 310.815,584.63 C312.288341,584.456666 313.32833,584.716663 313.935,585.41 C314.54167,586.103337 314.931666,587.013328 315.105,588.14 C315.105,588.660003 315.061667,589.22333 314.975,589.83 C314.888333,590.43667 314.715001,591.086663 314.455,591.78 C313.588329,593.773343 312.700005,596.004988 311.79,598.475 C310.879995,600.945012 309.926672,603.393321 308.93,605.82 C307.933328,608.246679 306.893339,610.478323 305.81,612.515 C304.726661,614.551677 303.621672,616.176661 302.495,617.39 C302.234999,617.563334 301.996668,617.801665 301.78,618.105 C301.563332,618.408335 301.368334,618.689999 301.195,618.95 C300.328329,620.510008 299.115008,621.160001 297.555,620.9 C295.908325,620.639999 294.175009,620.639999 292.355,620.9 C291.314995,621.073334 290.275005,621.051668 289.235,620.835 C288.194995,620.618332 287.198338,620.293336 286.245,619.86 C285.811665,619.773333 285.400002,619.73 285.01,619.73 L283.775,619.73 C283.16833,619.816667 282.518337,619.730001 281.825,619.47 C280.438326,619.036665 279.225005,618.408337 278.185,617.585 C277.144995,616.761663 276.148338,615.786672 275.195,614.66 C274.761664,614.226664 274.371668,613.750003 274.025,613.23 C273.678332,612.709997 273.461667,612.103337 273.375,611.41 C273.288333,610.889997 273.158334,610.413336 272.985,609.98 L272.465,608.68 C271.944997,607.119992 271.620001,605.581674 271.49,604.065 C271.359999,602.548326 271.338333,601.053341 271.425,599.58 C271.425,598.626662 271.511666,597.695005 271.685,596.785 C271.858334,595.874995 272.031666,594.900005 272.205,593.86 C272.638335,592.299992 273.028332,590.761674 273.375,589.245 C273.721668,587.728326 274.111665,586.146675 274.545,584.5 C274.978336,583.199994 275.454997,581.835007 275.975,580.405 C276.495003,578.974993 276.971664,577.610007 277.405,576.31 C277.751668,575.529996 278.054999,574.750004 278.315,573.97 C278.575001,573.189996 278.878332,572.453337 279.225,571.76 L278.705,571.76 L278.055,572.93 C277.881666,573.276668 277.578335,573.666665 277.145,574.1 C278.185005,571.846655 279.246661,569.528345 280.33,567.145 C281.413339,564.761655 282.561661,562.400012 283.775,560.06 Z M371.265,587.49 C372.131671,587.403333 372.391668,587.923328 372.045,589.05 C371.698332,590.176672 371.091671,591.563325 370.225,593.21 C370.051666,593.556668 369.813335,593.968331 369.51,594.445 C369.206665,594.921669 368.881668,595.419997 368.535,595.94 C368.188332,596.460003 367.906668,596.979997 367.69,597.5 C367.473332,598.020003 367.365,598.453332 367.365,598.8 L367.04,599.125 C366.909999,599.255001 366.758334,599.363333 366.585,599.45 C366.151665,599.883336 365.805001,600.40333 365.545,601.01 C365.371666,601.356668 365.220001,601.616666 365.09,601.79 C364.959999,601.963334 364.808334,602.179999 364.635,602.44 C363.681662,604.086675 362.815004,605.451661 362.035,606.535 C361.254996,607.618339 360.128341,608.896659 358.655,610.37 C358.481666,610.543334 357.983337,611.019996 357.16,611.8 C356.336663,612.580004 355.448338,613.424995 354.495,614.335 C353.541662,615.245005 352.653337,616.089996 351.83,616.87 C351.006663,617.650004 350.551667,618.126666 350.465,618.3 C349.511662,619.080004 348.493339,619.599999 347.41,619.86 C346.326661,620.120001 345.243339,620.271666 344.16,620.315 C343.076661,620.358334 341.993339,620.336667 340.91,620.25 C339.826661,620.163333 338.808338,620.12 337.855,620.12 C336.641661,620.12 335.73167,619.946668 335.125,619.6 C334.51833,619.253332 333.716672,618.841669 332.72,618.365 C331.723328,617.888331 331.008335,617.34667 330.575,616.74 C330.314999,616.046663 329.946669,615.375003 329.47,614.725 L328.04,612.775 C327.563331,612.124997 327.151668,611.410004 326.805,610.63 C326.458332,609.849996 326.241667,608.940005 326.155,607.9 C326.068333,607.379997 325.938334,606.925002 325.765,606.535 C325.591666,606.144998 325.461667,605.690003 325.375,605.17 C325.461667,603.08999 325.634999,601.01001 325.895,598.93 C326.155001,596.84999 326.414999,594.726678 326.675,592.56 C327.108336,591.086659 327.476665,589.548341 327.78,587.945 C328.083335,586.341659 328.364999,584.803341 328.625,583.33 L329.47,579.95 C329.686668,579.083329 329.946665,578.260004 330.25,577.48 C330.553335,576.699996 330.899998,575.920004 331.29,575.14 C331.680002,574.359996 332.17833,573.320006 332.785,572.02 C333.131668,571.153329 333.456665,570.460003 333.76,569.94 C334.063335,569.419997 334.366665,568.943335 334.67,568.51 C334.973335,568.076664 335.276665,567.600003 335.58,567.08 C335.883335,566.559997 336.208332,565.866671 336.555,565 C337.508338,563.093324 338.504995,561.360008 339.545,559.8 C339.978335,558.846662 340.476664,557.893338 341.04,556.94 C341.603336,555.986662 342.18833,555.033338 342.795,554.08 C345.221679,549.833312 347.908319,546.106683 350.855,542.9 C351.808338,541.946662 352.804995,540.971672 353.845,539.975 C354.885005,538.978328 355.881662,538.046671 356.835,537.18 C357.44167,536.746664 358.026664,536.291669 358.59,535.815 C359.153336,535.338331 359.73833,535.013334 360.345,534.84 C360.605001,534.666666 360.994997,534.493334 361.515,534.32 C362.468338,534.233333 363.334996,534.276666 364.115,534.45 C364.895004,534.623334 365.631663,535.056663 366.325,535.75 C367.625006,536.876672 368.058335,538.696654 367.625,541.21 C367.451666,541.990004 367.321667,542.769996 367.235,543.55 C367.148333,544.330004 367.018334,545.066663 366.845,545.76 C366.758333,546.36667 366.606668,546.929997 366.39,547.45 C366.173332,547.970003 365.891668,548.576663 365.545,549.27 C365.111664,550.396672 364.613336,551.479995 364.05,552.52 C363.486664,553.560005 362.858337,554.599995 362.165,555.64 L359.305,560.71 C358.524996,561.923339 357.788337,563.114994 357.095,564.285 C356.401663,565.455006 355.665004,566.603328 354.885,567.73 C353.498326,569.550009 352.198339,571.413324 350.985,573.32 C349.771661,575.226676 348.558339,577.089991 347.345,578.91 C346.304995,580.643342 345.525003,582.073328 345.005,583.2 C344.484997,584.326672 344.095001,585.388328 343.835,586.385 C343.574999,587.381672 343.336668,588.443328 343.12,589.57 C342.903332,590.696672 342.621668,592.126658 342.275,593.86 C342.014999,595.246674 341.906666,596.416662 341.95,597.37 C341.993334,598.323338 341.971667,599.493326 341.885,600.88 C341.885,601.053334 341.928333,601.464997 342.015,602.115 C342.101667,602.765003 342.166666,603.45833 342.21,604.195 C342.253334,604.93167 342.318333,605.60333 342.405,606.21 C342.491667,606.81667 342.535,607.163333 342.535,607.25 C342.708334,608.203338 342.903332,608.918331 343.12,609.395 C343.336668,609.871669 343.661665,610.543329 344.095,611.41 C344.268334,611.670001 344.679997,611.886666 345.33,612.06 C345.980003,612.233334 346.478332,612.406666 346.825,612.58 C347.085001,612.753334 347.626663,612.645002 348.45,612.255 C349.273337,611.864998 350.183328,611.36667 351.18,610.76 C352.176672,610.15333 353.086663,609.568336 353.91,609.005 C354.733337,608.441664 355.274999,608.073334 355.535,607.9 C356.575005,607.29333 357.528329,606.556671 358.395,605.69 L361.125,602.96 C362.078338,602.006662 362.85833,601.010005 363.465,599.97 C364.07167,598.929995 364.808329,597.803339 365.675,596.59 C366.888339,595.029992 367.819997,593.556674 368.47,592.17 C369.120003,590.783326 370.051661,589.223342 371.265,587.49 Z M344.485,577.61 C345.438338,576.136659 346.28333,574.836672 347.02,573.71 C347.75667,572.583328 348.558329,571.283341 349.425,569.81 C350.465005,568.163325 351.309997,566.798339 351.96,565.715 C352.610003,564.631661 353.23833,563.591672 353.845,562.595 C354.45167,561.598328 355.05833,560.536672 355.665,559.41 C356.27167,558.283328 357.051662,556.810009 358.005,554.99 C358.698337,553.603326 359.369997,552.23834 360.02,550.895 C360.670003,549.55166 361.341663,548.186674 362.035,546.8 C362.64167,545.066658 363.074999,543.116678 363.335,540.95 C363.595001,540.169996 363.465003,539.909999 362.945,540.17 C362.511664,540.256667 362.035003,540.473332 361.515,540.82 C359.781658,541.513337 358.308339,542.769991 357.095,544.59 C356.661665,545.110003 356.250002,545.651664 355.86,546.215 C355.469998,546.778336 355.015003,547.319997 354.495,547.84 C353.88833,548.533337 353.411668,549.24833 353.065,549.985 C352.718332,550.72167 352.415001,551.523329 352.155,552.39 L350.205,556.55 C349.771664,557.936674 349.25167,559.30166 348.645,560.645 C348.03833,561.98834 347.388337,563.353326 346.695,564.74 L345.265,568.77 C344.831664,569.896672 344.550001,570.654998 344.42,571.045 C344.289999,571.435002 344.160001,571.781665 344.03,572.085 C343.899999,572.388335 343.770001,572.734998 343.64,573.125 C343.509999,573.515002 343.271668,574.273328 342.925,575.4 C342.838333,575.660001 342.795,576.006664 342.795,576.44 C342.795,576.873335 342.838333,577.263332 342.925,577.61 C343.011667,577.956668 343.184999,578.151666 343.445,578.195 C343.705001,578.238334 344.051665,578.043336 344.485,577.61 Z M391.155,596.07 C390.201662,597.023338 389.010007,597.933329 387.58,598.8 C386.149993,599.666671 384.871672,600.446663 383.745,601.14 C382.618328,601.74667 381.426673,602.093333 380.17,602.18 C378.913327,602.266667 377.938337,602.396666 377.245,602.57 C376.63833,602.57 375.750006,602.440001 374.58,602.18 C373.409994,601.919999 372.608336,601.660001 372.175,601.4 C371.394996,600.879997 370.766669,600.425002 370.29,600.035 C369.813331,599.644998 369.445001,599.190003 369.185,598.67 C368.924999,598.149997 368.730001,597.543337 368.6,596.85 C368.469999,596.156663 368.318334,595.290005 368.145,594.25 C367.971666,593.729997 367.928333,592.950005 368.015,591.91 C368.101667,590.869995 368.361665,589.830005 368.795,588.79 C368.968334,588.009996 369.466663,586.840008 370.29,585.28 C371.113337,583.719992 372.023328,582.095008 373.02,580.405 C374.016672,578.714992 374.969995,577.111674 375.88,575.595 C376.790005,574.078326 377.374999,572.973337 377.635,572.28 C377.981668,571.586663 378.328332,570.87167 378.675,570.135 C379.021668,569.39833 379.454997,568.640004 379.975,567.86 C380.148334,567.426665 380.386665,567.101668 380.69,566.885 C380.993335,566.668332 381.318332,566.473334 381.665,566.3 C382.098335,566.126666 382.531665,565.996667 382.965,565.91 C383.398336,565.823333 383.788332,565.606668 384.135,565.26 C384.655003,564.999999 384.979999,564.761668 385.11,564.545 C385.240001,564.328332 385.305,564.111668 385.305,563.895 C385.305,563.678332 385.326666,563.505001 385.37,563.375 C385.413334,563.244999 385.608332,563.18 385.955,563.18 C387.168339,563.18 388.121663,563.656662 388.815,564.61 C389.075001,564.696667 389.248333,564.869999 389.335,565.13 C389.421667,565.390001 389.594999,565.649999 389.855,565.91 C390.028334,566.083334 390.115,566.278332 390.115,566.495 L390.115,567.21 C389.941666,567.990004 389.638336,568.943328 389.205,570.07 C388.771665,571.196672 388.338336,572.344994 387.905,573.515 C387.471664,574.685006 387.038336,575.811661 386.605,576.895 C386.171665,577.978339 385.868334,578.909996 385.695,579.69 C385.521666,579.950001 385.370001,580.318331 385.24,580.795 C385.109999,581.271669 385.001667,581.791664 384.915,582.355 C384.828333,582.918336 384.763334,583.459997 384.72,583.98 C384.676666,584.500003 384.611667,584.846666 384.525,585.02 C384.351666,585.713337 384.200001,586.341664 384.07,586.905 C383.939999,587.468336 383.701668,588.096663 383.355,588.79 C383.181666,589.310003 383.008334,589.959996 382.835,590.74 C382.661666,591.520004 382.748332,592.039999 383.095,592.3 C383.181667,592.473334 383.289999,592.711665 383.42,593.015 L383.81,593.925 C383.940001,594.228335 384.069999,594.488332 384.2,594.705 C384.330001,594.921668 384.481666,594.986667 384.655,594.9 C386.215008,594.033329 387.883324,593.426668 389.66,593.08 C391.436676,592.733332 392.758329,592.040005 393.625,591 C393.885001,590.653332 394.123332,590.415001 394.34,590.285 C394.556668,590.154999 394.773332,590.046667 394.99,589.96 C395.206668,589.873333 395.423332,589.765001 395.64,589.635 C395.856668,589.504999 396.094999,589.266668 396.355,588.92 C396.788336,588.486664 397.113332,588.075002 397.33,587.685 C397.546668,587.294998 397.741666,586.926668 397.915,586.58 C398.348335,585.713329 398.629999,585.236667 398.76,585.15 C398.890001,585.063333 399.128332,584.673337 399.475,583.98 C399.908336,583.113329 400.384997,582.290004 400.905,581.51 C401.425003,580.729996 401.944997,579.993337 402.465,579.3 C402.638334,578.69333 402.854999,578.173336 403.115,577.74 C403.375001,577.306665 403.721664,576.830003 404.155,576.31 C404.848337,576.136666 405.238333,576.05 405.325,576.05 C405.411667,576.05 405.584999,576.093333 405.845,576.18 L406.755,576.18 C406.841667,576.18 406.885,576.201666 406.885,576.245 L406.885,576.44 C406.885,576.526667 407.014999,576.656666 407.275,576.83 C407.448334,577.090001 407.513334,577.328332 407.47,577.545 C407.426666,577.761668 407.491666,577.956666 407.665,578.13 C407.231664,579.343339 406.906668,580.599993 406.69,581.9 C406.473332,583.200006 406.06167,584.586659 405.455,586.06 C405.281666,586.493336 405.173334,586.645001 405.13,586.515 C405.086666,586.384999 404.891668,586.62333 404.545,587.23 C404.631667,587.663336 404.566668,588.139997 404.35,588.66 C404.133332,589.180003 403.895001,589.699997 403.635,590.22 C403.374999,590.82667 403.223334,591.454997 403.18,592.105 C403.136666,592.755003 402.898336,593.339997 402.465,593.86 C401.424995,598.280022 400.905,600.706664 400.905,601.14 C400.818333,601.573335 401.013331,601.963332 401.49,602.31 C401.966669,602.656668 402.616663,602.894999 403.44,603.025 C404.263337,603.155001 405.216661,603.198334 406.3,603.155 C407.383339,603.111666 408.488328,602.916668 409.615,602.57 C410.395004,602.223332 411.261662,601.68167 412.215,600.945 C413.168338,600.20833 414.164995,599.363338 415.205,598.41 C416.245005,597.456662 417.219995,596.438339 418.13,595.355 C419.040005,594.271661 419.79833,593.210005 420.405,592.17 C420.838335,591.389996 421.293331,590.588337 421.77,589.765 C422.246669,588.941663 422.831663,588.010005 423.525,586.97 C423.871668,586.36333 424.174999,586.124999 424.435,586.255 C424.695001,586.385001 424.911666,586.644998 425.085,587.035 C425.258334,587.425002 425.366666,587.858331 425.41,588.335 C425.453334,588.811669 425.431667,589.179999 425.345,589.44 L424.565,591 C424.044997,591.433335 423.503336,592.386659 422.94,593.86 C422.376664,595.333341 421.878335,596.286665 421.445,596.72 C421.271666,596.893334 421.185,597.044999 421.185,597.175 C421.185,597.305001 421.011668,597.456666 420.665,597.63 C419.798329,598.756672 418.628341,600.099992 417.155,601.66 C415.681659,603.220008 414.295006,604.519995 412.995,605.56 C412.38833,605.733334 411.976668,605.906666 411.76,606.08 C411.543332,606.253334 411.13167,606.469999 410.525,606.73 C410.091664,607.163336 409.745001,607.466666 409.485,607.64 C409.224999,607.813334 408.79167,608.073332 408.185,608.42 C407.751665,608.593334 407.448334,608.744999 407.275,608.875 C407.101666,609.005001 406.928334,609.156666 406.755,609.33 C406.234997,609.156666 405.866668,609.134999 405.65,609.265 C405.433332,609.395001 405.238334,609.546666 405.065,609.72 C404.45833,610.066668 403.440007,610.348332 402.01,610.565 C400.579993,610.781668 399.106674,610.825001 397.59,610.695 C396.073326,610.564999 394.686673,610.240003 393.43,609.72 C392.173327,609.199997 391.458334,608.376672 391.285,607.25 C391.111666,606.209995 390.960001,605.278337 390.83,604.455 C390.699999,603.631663 390.613334,602.830004 390.57,602.05 C390.526666,601.269996 390.548333,600.446671 390.635,599.58 C390.721667,598.713329 390.894999,597.716672 391.155,596.59 L391.155,596.07 Z M426.385,620.64 C426.99167,619.339993 427.66333,618.170005 428.4,617.13 C429.13667,616.089995 429.938329,615.093338 430.805,614.14 C432.018339,612.753326 433.253327,611.431673 434.51,610.175 C435.766673,608.918327 437.044994,607.683339 438.345,606.47 L444.065,601.4 C444.67167,600.79333 445.104999,600.100004 445.365,599.32 C445.711668,598.366662 446.036665,597.478337 446.34,596.655 C446.643335,595.831663 446.924999,594.943338 447.185,593.99 C447.618336,592.689994 447.878333,591.390007 447.965,590.09 C448.051667,588.789994 448.051667,587.533339 447.965,586.32 C447.791666,585.366662 447.575001,584.760001 447.315,584.5 C447.054999,584.239999 446.448338,584.196666 445.495,584.37 C444.541662,584.630001 443.675004,585.236662 442.895,586.19 L441.725,587.49 C441.11833,587.923336 440.771667,588.44333 440.685,589.05 C440.424999,590.003338 440.035003,590.696664 439.515,591.13 C439.081664,591.563335 438.778334,592.213329 438.605,593.08 C438.431666,594.120005 437.998337,594.813332 437.305,595.16 C436.958332,595.333334 436.698334,595.809996 436.525,596.59 C436.525,597.370004 436.22167,598.193329 435.615,599.06 L435.225,600.23 L434.705,601.66 C434.358332,602.786672 433.665005,603.35 432.625,603.35 C432.278332,603.35 431.975001,603.393333 431.715,603.48 C431.454999,603.566667 431.151668,603.696666 430.805,603.87 C430.631666,604.043334 430.436668,604.13 430.22,604.13 C430.003332,604.13 429.808334,604.173333 429.635,604.26 L428.725,604.26 C428.378332,604.26 428.031668,604.303333 427.685,604.39 C427.338332,604.476667 426.948335,604.52 426.515,604.52 C426.168332,604.433333 425.843335,604.325001 425.54,604.195 C425.236665,604.064999 424.911668,603.913334 424.565,603.74 C423.091659,603.393332 422.008337,602.353342 421.315,600.62 C420.968332,599.493328 420.751667,598.496671 420.665,597.63 C420.578333,597.196664 420.513334,596.720003 420.47,596.2 C420.426666,595.679997 420.405,595.203335 420.405,594.77 C420.405,594.336664 420.426666,593.968335 420.47,593.665 C420.513334,593.361665 420.578333,592.993336 420.665,592.56 L421.575,587.36 C421.748334,586.146661 421.986665,584.976672 422.29,583.85 C422.593335,582.723328 422.918332,581.553339 423.265,580.34 C423.611668,579.73333 423.828333,579.12667 423.915,578.52 C424.088334,577.306661 424.369998,576.180005 424.76,575.14 C425.150002,574.099995 425.561665,573.060005 425.995,572.02 L428.855,565.78 C429.808338,563.69999 430.804995,561.663343 431.845,559.67 C432.191668,559.06333 432.516665,558.478336 432.82,557.915 C433.123335,557.351664 433.491665,556.76667 433.925,556.16 C434.185001,555.55333 434.488332,554.990003 434.835,554.47 C435.181668,553.949997 435.484999,553.38667 435.745,552.78 C436.005001,552.086663 436.329998,551.393337 436.72,550.7 C437.110002,550.006663 437.521664,549.313337 437.955,548.62 C438.128334,548.273332 438.301666,547.970001 438.475,547.71 C438.648334,547.449999 438.821666,547.146668 438.995,546.8 C440.208339,545.153325 441.464993,543.506675 442.765,541.86 C444.065007,540.213325 445.408326,538.610008 446.795,537.05 L447.965,535.62 C448.398336,535.186665 448.701666,534.97 448.875,534.97 C449.048334,534.97 449.351665,534.818335 449.785,534.515 C450.218336,534.211665 450.521666,534.146666 450.695,534.32 C450.781667,534.406667 451.041665,534.623332 451.475,534.97 C451.908336,535.316668 452.363331,535.684998 452.84,536.075 C453.316669,536.465002 453.749998,536.811665 454.14,537.115 C454.530002,537.418335 454.811666,537.57 454.985,537.57 C454.985,537.656667 455.114999,537.786666 455.375,537.96 C455.635001,538.133334 455.938332,538.349999 456.285,538.61 L457.585,539.65 C458.018336,540.343337 458.60333,541.318327 459.34,542.575 C460.07667,543.831673 460.661665,544.806663 461.095,545.5 C461.528336,546.193337 461.636668,546.994995 461.42,547.905 C461.203332,548.815005 460.965001,549.703329 460.705,550.57 C460.618333,550.743334 460.445001,550.700001 460.185,550.44 C459.924999,550.179999 459.665001,549.855002 459.405,549.465 C459.144999,549.074998 458.885001,548.750001 458.625,548.49 C458.364999,548.229999 458.191667,548.143333 458.105,548.23 C457.844999,548.663336 457.671667,548.901666 457.585,548.945 C457.498333,548.988334 457.433334,549.031666 457.39,549.075 L457.195,549.27 C457.108333,549.356667 456.978334,549.616664 456.805,550.05 C456.805,550.136667 456.653335,550.331665 456.35,550.635 C456.046665,550.938335 455.700002,551.263332 455.31,551.61 C454.919998,551.956668 454.573335,552.259999 454.27,552.52 C453.966665,552.780001 453.771667,552.953333 453.685,553.04 C453.164997,553.993338 452.645003,554.729997 452.125,555.25 C451.604997,555.770003 450.955004,556.376663 450.175,557.07 L448.615,559.02 C448.181665,559.453335 447.835001,559.908331 447.575,560.385 C447.314999,560.861669 446.968336,561.316665 446.535,561.75 C446.188332,562.183335 445.885001,562.616664 445.625,563.05 C445.364999,563.483335 445.105001,563.873332 444.845,564.22 C444.324997,564.913337 443.826669,565.606663 443.35,566.3 C442.873331,566.993337 442.418336,567.729996 441.985,568.51 C441.551665,569.203337 440.96667,570.091661 440.23,571.175 C439.49333,572.258339 438.995001,573.233329 438.735,574.1 C438.474999,574.966671 438.128336,575.70333 437.695,576.31 C437.521666,576.656668 437.370001,577.003332 437.24,577.35 C437.109999,577.696668 436.958334,578.086664 436.785,578.52 L434.835,583.33 C434.661666,583.590001 434.510001,584.044997 434.38,584.695 C434.249999,585.345003 434.120001,586.016663 433.99,586.71 C433.859999,587.403337 433.730001,588.05333 433.6,588.66 C433.469999,589.26667 433.361667,589.656666 433.275,589.83 C433.275,590.003334 433.166668,590.523329 432.95,591.39 C432.733332,592.256671 432.581667,593.101663 432.495,593.925 C432.408333,594.748337 432.451666,595.376665 432.625,595.81 C432.798334,596.243336 433.231663,596.200003 433.925,595.68 C434.445003,594.986663 434.791666,594.466668 434.965,594.12 C435.138334,593.773332 435.484997,593.253337 436.005,592.56 C436.698337,591.519995 437.41333,590.480005 438.15,589.44 C438.88667,588.399995 439.644996,587.360005 440.425,586.32 C440.771668,585.799997 441.161665,585.345002 441.595,584.955 C442.028336,584.564998 442.461664,584.196668 442.895,583.85 C443.50167,583.329997 444.194996,583.07 444.975,583.07 L445.625,583.07 C447.70501,582.809999 449.481659,583.633324 450.955,585.54 L452.515,587.49 C453.208337,588.703339 453.555,590.089992 453.555,591.65 C453.555,593.210008 453.533334,594.596661 453.49,595.81 C453.446666,597.023339 453.554999,597.911664 453.815,598.475 C454.075001,599.038336 454.811661,598.930004 456.025,598.15 L467.075,591.39 C467.68167,591.043332 468.071666,590.805001 468.245,590.675 C468.418334,590.544999 468.569999,590.436667 468.7,590.35 C468.830001,590.263333 469.003332,590.155001 469.22,590.025 C469.436668,589.894999 469.84833,589.656668 470.455,589.31 C470.541667,589.223333 470.585,589.331665 470.585,589.635 L470.585,591.78 C470.585,592.126668 470.671666,592.3 470.845,592.3 L470.195,592.95 C469.414996,593.296668 469.025,593.513333 469.025,593.6 C469.025,593.686667 468.72167,593.989997 468.115,594.51 C467.681665,594.856668 467.291668,595.138332 466.945,595.355 C466.598332,595.571668 466.208336,595.853332 465.775,596.2 L464.085,597.045 C463.304996,597.435002 462.828334,597.803332 462.655,598.15 C462.481666,598.410001 462.286668,598.583333 462.07,598.67 C461.853332,598.756667 461.658334,598.886666 461.485,599.06 C460.964997,599.233334 460.488336,599.471665 460.055,599.775 C459.621665,600.078335 459.188335,600.446664 458.755,600.88 C457.628328,601.660004 456.870002,602.266665 456.48,602.7 C456.089998,603.133336 455.548337,603.609997 454.855,604.13 C454.074996,604.650003 453.533335,605.126665 453.23,605.56 C452.926665,605.993336 452.710001,606.404998 452.58,606.795 C452.449999,607.185002 452.320001,607.639997 452.19,608.16 C452.059999,608.680003 451.865001,609.286663 451.605,609.98 C451.431666,610.326668 451.301667,610.651665 451.215,610.955 C451.128333,611.258335 450.998334,611.539999 450.825,611.8 L450.695,612.06 C450.434999,613.013338 450.175001,613.576666 449.915,613.75 C449.654999,613.923334 449.308335,614.399996 448.875,615.18 C448.26833,615.960004 447.705003,616.739996 447.185,617.52 C446.664997,618.300004 446.058337,619.036663 445.365,619.73 L443.805,621.16 C443.631666,621.333334 443.480001,621.463333 443.35,621.55 C443.219999,621.636667 443.111667,621.766666 443.025,621.94 C442.331663,623.153339 441.335007,624.06333 440.035,624.67 C439.341663,624.930001 438.69167,625.319997 438.085,625.84 C437.391663,626.44667 436.698337,626.793333 436.005,626.88 C435.138329,627.140001 434.271671,627.183334 433.405,627.01 L433.145,627.01 C432.711664,626.663332 432.256669,626.468334 431.78,626.425 C431.303331,626.381666 430.848336,626.273334 430.415,626.1 C430.415,625.926666 430.393334,625.775001 430.35,625.645 C430.306666,625.514999 430.285,625.363334 430.285,625.19 C429.764997,625.103333 429.353335,624.886668 429.05,624.54 C428.746665,624.193332 428.421668,623.803336 428.075,623.37 C427.728332,622.936665 427.403335,622.525002 427.1,622.135 C426.796665,621.744998 426.558334,621.24667 426.385,620.64 Z M433.145,619.6 C433.925004,619.166665 434.61833,618.625003 435.225,617.975 C435.83167,617.324997 436.394997,616.566671 436.915,615.7 L437.695,614.4 C438.041668,613.966664 438.366665,613.598335 438.67,613.295 C438.973335,612.991665 439.254999,612.623335 439.515,612.19 C440.208337,611.236662 440.901663,610.153339 441.595,608.94 C441.855001,608.506664 441.898334,608.225001 441.725,608.095 C441.551666,607.964999 441.291668,607.964999 440.945,608.095 C440.598332,608.225001 440.230002,608.419999 439.84,608.68 C439.449998,608.940001 439.168334,609.199999 438.995,609.46 C438.38833,610.326671 437.825003,610.954998 437.305,611.345 C436.784997,611.735002 436.22167,612.406662 435.615,613.36 C435.528333,613.533334 435.441667,613.641666 435.355,613.685 C435.268333,613.728334 435.138334,613.836666 434.965,614.01 C434.271663,614.61667 433.643336,615.244997 433.08,615.895 C432.516664,616.545003 431.888337,617.17333 431.195,617.78 L430.935,618.04 C430.414997,618.473335 430.025001,618.906665 429.765,619.34 C429.504999,619.773336 429.439999,620.098332 429.57,620.315 C429.700001,620.531668 430.046664,620.596667 430.61,620.51 C431.173336,620.423333 432.018328,620.120003 433.145,619.6 Z" id="Club-Copy-2"></path>
                <path d="M304.26,34.64 C305.126671,33.9466632 305.92833,33.4050019 306.665,33.015 C307.40167,32.624998 308.159996,32.2566684 308.94,31.91 C311.366679,30.9566619 313.92332,30.1333368 316.61,29.44 C317.823339,29.1799987 319.058327,28.8766684 320.315,28.53 C321.571673,28.1833316 322.849993,27.7933355 324.15,27.36 C325.623341,26.9266645 327.074993,26.5583348 328.505,26.255 C329.935007,25.9516651 331.386659,25.7133342 332.86,25.54 L345.08,23.85 C347.853347,23.5033316 350.648319,23.2000013 353.465,22.94 C356.281681,22.6799987 359.076653,22.4200013 361.85,22.16 C362.543337,22.0733329 363.19333,21.9650007 363.8,21.835 C364.40667,21.7049994 365.056663,21.4233355 365.75,20.99 C365.923334,21.2500013 366.096666,21.6399974 366.27,22.16 C366.616668,23.3733394 366.746667,24.6299935 366.66,25.93 C366.573333,27.2300065 366.356668,28.5733264 366.01,29.96 C365.663332,30.9133381 365.100004,31.5633316 364.32,31.91 L360.29,34.25 C359.509996,34.6833355 358.708337,35.0516651 357.885,35.355 C357.061663,35.6583349 356.216671,36.0266645 355.35,36.46 C354.396662,36.8933355 353.443338,37.1533329 352.49,37.24 C351.536662,37.3266671 350.583338,37.4566658 349.63,37.63 C347.54999,37.7166671 345.925006,38.5616586 344.755,40.165 C343.584994,41.7683413 342.63167,43.631656 341.895,45.755 C341.15833,47.878344 340.443337,50.0233225 339.75,52.19 C339.056663,54.3566775 338.103339,56.0899935 336.89,57.39 C336.629999,57.9100026 336.348335,58.4299974 336.045,58.95 C335.741665,59.4700026 335.503334,60.0333303 335.33,60.64 C334.549996,62.6333433 333.748337,64.6483231 332.925,66.685 C332.101663,68.7216769 331.213338,70.7366567 330.26,72.73 C329.826664,73.8566723 329.480001,74.9616613 329.22,76.045 C328.959999,77.1283387 328.700001,78.1899948 328.44,79.23 C328.353333,79.5766684 328.266667,79.8799987 328.18,80.14 L327.92,80.92 L325.97,87.03 L324.93,90.15 C324.496665,91.883342 324.28,93.3566606 324.28,94.57 C324.28,95.0033355 324.193334,95.4799974 324.02,96 C323.846666,96.5200026 323.673334,96.9966645 323.5,97.43 C323.153332,98.296671 322.828335,99.1416626 322.525,99.965 C322.221665,100.788337 321.983334,101.633329 321.81,102.5 C321.549999,103.713339 320.900005,104.926661 319.86,106.14 C319.166663,106.833337 318.560003,107.569996 318.04,108.35 C317.086662,109.823341 315.786675,110.949996 314.14,111.73 L312.32,112.9 C311.799997,113.420003 311.23667,113.766666 310.63,113.94 C310.02333,114.113334 309.503335,113.983336 309.07,113.55 C308.46333,112.94333 308.030001,112.33667 307.77,111.73 C307.336664,110.256659 306.925002,108.783341 306.535,107.31 C306.144998,105.836659 306.036666,104.276675 306.21,102.63 C306.556668,99.0766489 307.076663,95.3500195 307.77,91.45 C308.636671,87.4633134 309.611661,83.4766866 310.695,79.49 C311.778339,75.5033134 313.056659,71.5166866 314.53,67.53 C314.790001,66.7499961 315.309996,65.5366749 316.09,63.89 C316.870004,62.2433251 317.714995,60.4016769 318.625,58.365 C319.535005,56.3283232 320.35833,54.205011 321.095,51.995 C321.83167,49.784989 322.264999,47.7916756 322.395,46.015 C322.525001,44.2383244 322.243337,42.7866723 321.55,41.66 C320.856663,40.5333277 319.556676,39.97 317.65,39.97 C317.389999,39.8833329 317.108335,39.84 316.805,39.84 C316.501665,39.84 316.263334,39.7533342 316.09,39.58 C315.396663,39.2333316 314.68167,39.0166671 313.945,38.93 C313.20833,38.8433329 312.493337,38.7566671 311.8,38.67 C311.279997,38.5833329 310.738336,38.54 310.175,38.54 C309.611664,38.54 309.113336,38.4533342 308.68,38.28 C308.333332,38.1066658 308.008335,37.9333342 307.705,37.76 C307.401665,37.5866658 307.163334,37.3266684 306.99,36.98 C306.816666,36.2866632 306.491669,35.7883348 306.015,35.485 C305.538331,35.1816651 304.953337,34.9000013 304.26,34.64 Z M367.31,76.76 C367.743336,76.2399974 368.349996,75.6333368 369.13,74.94 C369.910004,74.2466632 370.711663,73.5100039 371.535,72.73 C372.358337,71.9499961 373.159996,71.1916703 373.94,70.455 C374.720004,69.7183296 375.326664,69.1333355 375.76,68.7 C377.926677,66.7066567 380.179988,65.4933355 382.52,65.06 C384.860012,64.6266645 387.156655,65.1466593 389.41,66.62 C389.930003,67.4000039 390.211666,68.4399935 390.255,69.74 C390.298334,71.0400065 390.255001,72.3833264 390.125,73.77 C389.994999,75.1566736 389.778335,76.4999935 389.475,77.8 C389.171665,79.1000065 388.933334,80.183329 388.76,81.05 C388.586666,81.8300039 388.283336,82.8049941 387.85,83.975 C387.416665,85.1450058 386.940003,86.3799935 386.42,87.68 C385.899997,88.9800065 385.423336,90.2149941 384.99,91.385 C384.556665,92.5550059 384.210001,93.4866632 383.95,94.18 C383.689999,96.1733433 384.058328,97.2999987 385.055,97.56 C386.051672,97.8200013 387.243326,97.6683362 388.63,97.105 C390.016674,96.5416639 391.38166,95.7833381 392.725,94.83 C394.06834,93.8766619 394.999997,93.1833355 395.52,92.75 L396.3,92.23 C396.820003,91.8833316 397.361664,91.4933355 397.925,91.06 C398.488336,90.6266645 399.029997,90.2366684 399.55,89.89 C400.070003,89.5433316 400.33,89.3266671 400.33,89.24 C401.023337,88.373329 401.716663,87.8100013 402.41,87.55 C403.103337,87.2899987 403.796663,86.6833381 404.49,85.73 C405.09667,84.9499961 405.638331,84.0616716 406.115,83.065 C406.591669,82.0683284 407.219996,81.2233368 408,80.53 C408.520003,80.0966645 408.866666,79.9016664 409.04,79.945 C409.213334,79.9883335 409.3,80.1399987 409.3,80.4 C409.3,80.6600013 409.191668,81.0283309 408.975,81.505 C408.758332,81.981669 408.520001,82.4366645 408.26,82.87 C407.826664,83.4766697 407.458335,83.974998 407.155,84.365 C406.851665,84.755002 406.591668,85.1233316 406.375,85.47 C406.158332,85.8166684 405.920001,86.2066645 405.66,86.64 C405.399999,87.0733355 405.096668,87.5933303 404.75,88.2 C404.403332,88.7200026 403.948336,89.3049968 403.385,89.955 C402.821664,90.6050032 402.453334,91.2766632 402.28,91.97 C402.106666,92.4900026 401.565005,92.944998 400.655,93.335 C399.744995,93.725002 399.116668,94.1366645 398.77,94.57 C398.336664,95.0900026 397.925002,95.6099974 397.535,96.13 C397.144998,96.6500026 396.776668,97.2133303 396.43,97.82 C396.256666,97.9933342 395.910003,98.2966645 395.39,98.73 C394.869997,99.1633355 394.328336,99.618331 393.765,100.095 C393.201664,100.571669 392.660003,101.004998 392.14,101.395 C391.619997,101.785002 391.316667,102.023333 391.23,102.11 C390.189995,103.150005 388.760009,103.908331 386.94,104.385 C385.119991,104.861669 383.386675,104.905002 381.74,104.515 C380.093325,104.124998 378.728339,103.171674 377.645,101.655 C376.561661,100.138326 376.236665,97.8200156 376.67,94.7 C376.843334,93.5733277 377.341663,92.1000091 378.165,90.28 C378.988337,88.4599909 379.876662,86.5966762 380.83,84.69 C381.783338,82.7833238 382.693329,80.9416755 383.56,79.165 C384.426671,77.3883244 385.076664,76.0233381 385.51,75.07 C385.856668,74.2899961 386.159999,73.4233381 386.42,72.47 C386.593334,72.1233316 386.68,71.7766684 386.68,71.43 L386.68,70.26 C385.986663,69.0466606 385.120005,68.3533342 384.08,68.18 C383.039995,68.0066658 382.000005,68.114998 380.96,68.505 C379.919995,68.8950019 378.966671,69.5016625 378.1,70.325 C377.233329,71.1483374 376.540003,71.9499961 376.02,72.73 C375.846666,72.9033342 375.608335,73.1199987 375.305,73.38 C375.001665,73.6400013 374.763334,73.9866645 374.59,74.42 C374.243332,75.1133368 373.723337,75.8066632 373.03,76.5 L366.4,84.69 C365.966664,85.2100026 365.511669,85.7299974 365.035,86.25 C364.558331,86.7700026 364.103335,87.3333303 363.67,87.94 C363.409999,88.3733355 362.868337,89.3266593 362.045,90.8 C361.221663,92.2733407 360.376671,93.876658 359.51,95.61 L357.105,100.42 C356.36833,101.893341 355.870001,102.846665 355.61,103.28 C355.176665,104.146671 354.916667,104.926663 354.83,105.62 C354.743333,106.053336 354.656667,106.421665 354.57,106.725 C354.483333,107.028335 354.353334,107.396664 354.18,107.83 C354.093333,108.263335 353.985001,108.696664 353.855,109.13 C353.724999,109.563335 353.616667,109.996665 353.53,110.43 C353.443333,111.03667 353.270001,111.64333 353.01,112.25 C352.749999,112.85667 352.403336,113.289999 351.97,113.55 C351.796666,113.723334 351.666667,113.896666 351.58,114.07 C351.493333,114.243334 351.363334,114.459999 351.19,114.72 L350.41,114.72 C350.236666,114.546666 349.998335,114.481666 349.695,114.525 C349.391665,114.568334 349.066668,114.633333 348.72,114.72 C348.199997,114.806667 348.069999,114.871666 348.33,114.915 C348.590001,114.958334 348.503335,114.98 348.07,114.98 C347.896666,114.98 347.766667,114.915001 347.68,114.785 C347.593333,114.654999 347.463334,114.546667 347.29,114.46 C347.116666,114.113332 346.878335,113.810001 346.575,113.55 C346.271665,113.289999 345.990001,112.986668 345.73,112.64 C344.689995,111.686662 344.083334,110.213343 343.91,108.22 C342.869995,104.31998 342.609997,99.9433576 343.13,95.09 C343.650003,90.2366424 344.538327,85.3400247 345.795,80.4 C347.051673,75.4599753 348.481659,70.7366892 350.085,66.23 C351.688341,61.7233108 353.009995,57.8233498 354.05,54.53 C355.003338,52.5366567 355.956662,50.5650098 356.91,48.615 C357.863338,46.6649902 358.903328,44.6933433 360.03,42.7 C361.330006,40.1866541 362.673326,37.7600117 364.06,35.42 C365.446674,33.0799883 366.919992,30.9133433 368.48,28.92 C370.56001,26.0599857 372.683323,23.763342 374.85,22.03 C376.236674,20.9033277 377.818324,20.7083296 379.595,21.445 C381.371676,22.1816703 383.039992,23.3299922 384.6,24.89 C386.160008,26.4500078 387.546661,28.2049903 388.76,30.155 C389.973339,32.1050097 390.709999,33.7299935 390.97,35.03 C391.403336,35.6366697 391.706666,36.4599948 391.88,37.5 C392.053334,38.5400052 391.923336,39.5366619 391.49,40.49 C391.229999,41.0966697 391.013334,41.1833355 390.84,40.75 C390.666666,40.3166645 390.363336,40.0133342 389.93,39.84 L388.89,39.45 L387.33,38.93 C386.636663,38.7566658 385.98667,39.0599961 385.38,39.84 L383.56,41.79 C382.606662,42.7433381 381.545006,43.9349929 380.375,45.365 C379.204994,46.7950071 378.273337,48.1166606 377.58,49.33 C377.146664,50.0233368 376.735002,50.6299974 376.345,51.15 C375.954998,51.6700026 375.500003,52.1466645 374.98,52.58 C374.806666,52.7533342 374.655001,52.9916652 374.525,53.295 C374.394999,53.5983348 374.243334,53.8366658 374.07,54.01 C373.549997,54.9633381 373.008336,55.873329 372.445,56.74 C371.881664,57.606671 371.340003,58.473329 370.82,59.34 L368.35,63.89 C367.656663,65.1033394 367.00667,66.2733277 366.4,67.4 C365.79333,68.5266723 365.18667,69.6966606 364.58,70.91 C364.146664,72.0366723 363.670003,73.1199948 363.15,74.16 C362.629997,75.2000052 362.153336,76.2833277 361.72,77.41 C361.373332,78.276671 361.091668,78.9699974 360.875,79.49 C360.658332,80.0100026 360.463334,80.508331 360.29,80.985 C360.116666,81.4616691 359.965001,81.9816639 359.835,82.545 C359.704999,83.1083362 359.553334,83.823329 359.38,84.69 C359.38,85.556671 359.74833,85.7083361 360.485,85.145 C361.22167,84.5816638 362.066662,83.7366723 363.02,82.61 C363.973338,81.4833277 364.883329,80.3350058 365.75,79.165 C366.616671,77.9949941 367.136666,77.1933355 367.31,76.76 Z M419.57,77.41 C419.483333,77.7566684 419.353334,78.0599987 419.18,78.32 C419.006666,78.5800013 418.92,78.9266645 418.92,79.36 C418.92,79.6200013 418.746668,79.8366658 418.4,80.01 C418.139999,80.2700013 418.01,80.4866658 418.01,80.66 C417.923333,81.0933355 417.706668,81.3533329 417.36,81.44 C417.186666,81.5266671 417.056667,81.8733303 416.97,82.48 C417.230001,82.48 417.403333,82.5233329 417.49,82.61 L417.49,82.74 L416.58,82.74 C416.666667,82.4799987 416.71,82.1333355 416.71,81.7 L416.45,81.7 L416.06,84.43 L416.58,84.69 C416.666667,85.1233355 416.71,85.5566645 416.71,85.99 L416.71,87.29 C416.71,87.9833368 416.883332,88.763329 417.23,89.63 C417.403334,89.8900013 417.706664,90.5399948 418.14,91.58 C418.573335,92.6200052 418.876666,93.2699987 419.05,93.53 C420.003338,94.4833381 420.999995,95.4149954 422.04,96.325 C423.080005,97.2350045 424.119995,97.7333329 425.16,97.82 C425.333334,97.82 425.658331,97.7983335 426.135,97.755 C426.611669,97.7116664 427.131664,97.6466671 427.695,97.56 C428.258336,97.4733329 428.778331,97.3866671 429.255,97.3 C429.731669,97.2133329 430.056666,97.17 430.23,97.17 C433.176681,96.303329 436.166652,94.7000117 439.2,92.36 C440.326672,91.493329 441.409995,90.6050045 442.45,89.695 C443.490005,88.7849954 444.573328,87.8533381 445.7,86.9 L446.09,86.51 L448.43,83.91 C449.123337,83.2166632 449.794997,82.5016703 450.445,81.765 C451.095003,81.0283296 451.72333,80.226671 452.33,79.36 C452.503334,79.0133316 452.698332,78.7100013 452.915,78.45 C453.131668,78.1899987 453.456664,77.9733342 453.89,77.8 C453.716666,78.4066697 453.565001,78.9699974 453.435,79.49 C453.304999,80.0100026 453.110001,80.5299974 452.85,81.05 C452.676666,81.4833355 452.460001,81.8299987 452.2,82.09 C451.766664,82.5233355 451.398335,82.9566645 451.095,83.39 C450.791665,83.8233355 450.510001,84.2999974 450.25,84.82 L448.95,86.38 L448.43,87.16 L449.47,86.77 C449.383333,87.2033355 449.231668,87.4849994 449.015,87.615 C448.798332,87.7450007 448.646667,87.9833316 448.56,88.33 C448.646667,88.4166671 448.69,88.4816664 448.69,88.525 C448.69,88.5683336 448.776666,88.6333329 448.95,88.72 C448.776666,89.0666684 448.581668,89.3483322 448.365,89.565 L447.65,90.28 C446.869996,90.9733368 446.133337,91.7099961 445.44,92.49 C444.83333,93.1833368 444.22667,93.7899974 443.62,94.31 C443.01333,94.8300026 442.363337,95.3499974 441.67,95.87 C441.323332,96.1300013 441.020001,96.3899987 440.76,96.65 C440.499999,96.9100013 440.196668,97.1266658 439.85,97.3 L438.29,98.34 C437.856664,98.5133342 437.466668,98.7083322 437.12,98.925 C436.773332,99.1416677 436.383335,99.3799987 435.95,99.64 C434.476659,100.506671 433.090007,101.069999 431.79,101.33 L430.62,101.72 C429.233326,102.153335 427.673342,102.456666 425.94,102.63 C425.506664,102.716667 424.748339,102.695001 423.665,102.565 C422.581661,102.434999 421.455006,102.261668 420.285,102.045 C419.114994,101.828332 418.010005,101.611668 416.97,101.395 C415.929995,101.178332 415.193335,100.983334 414.76,100.81 C412.506655,99.8566619 410.946671,98.8816716 410.08,97.885 C409.213329,96.8883283 408.260005,95.9133381 407.22,94.96 C406.439996,94.3533303 405.833335,93.4433394 405.4,92.23 C405.053332,91.363329 404.836667,90.4750045 404.75,89.565 C404.663333,88.6549955 404.576667,87.7233381 404.49,86.77 C404.49,84.7766567 404.728331,82.8050097 405.205,80.855 C405.681669,78.9049902 406.353329,77.0200091 407.22,75.2 C407.393334,74.7666645 407.501666,74.4850006 407.545,74.355 C407.588334,74.2249993 407.566667,73.8566697 407.48,73.25 C407.133332,73.4233342 406.873334,73.5966658 406.7,73.77 C406.526666,73.9433342 406.353334,74.2466645 406.18,74.68 C405.833332,75.6333381 405.313337,76.7599935 404.62,78.06 C404.62,77.4533303 404.728332,76.9333355 404.945,76.5 C405.161668,76.0666645 405.356666,75.6333355 405.53,75.2 C406.656672,72.6866541 407.869994,70.4766762 409.17,68.57 C410.556674,66.4033225 412.159991,64.4100091 413.98,62.59 C415.886676,60.5099896 417.836657,58.8633394 419.83,57.65 L421.13,57 C421.996671,56.6533316 422.559999,56.7399974 422.82,57.26 C422.993334,57.4333342 423.188332,57.52 423.405,57.52 C423.621668,57.52 423.816666,57.6066658 423.99,57.78 C424.163334,57.9533342 424.293333,58.1266658 424.38,58.3 C424.466667,58.4733342 424.596666,58.6466658 424.77,58.82 C425.116668,58.9933342 425.636663,59.1883322 426.33,59.405 C427.023337,59.6216677 427.759996,59.8599987 428.54,60.12 C429.320004,60.3800013 430.056663,60.6399987 430.75,60.9 C431.443337,61.1600013 431.919999,61.3766658 432.18,61.55 C432.440001,61.7233342 432.743332,62.1566632 433.09,62.85 C433.436668,63.4566697 433.761665,64.0416638 434.065,64.605 C434.368335,65.1683361 434.736665,65.6666645 435.17,66.1 C435.343334,66.2733342 435.451666,66.4683323 435.495,66.685 C435.538334,66.9016677 435.603333,67.0966658 435.69,67.27 C435.863334,68.0500039 435.95,68.8083296 435.95,69.545 C435.95,70.2816703 435.863334,71.083329 435.69,71.95 C435.516666,72.9033381 435.256668,73.7916625 434.91,74.615 C434.563332,75.4383375 434.173336,76.2399961 433.74,77.02 L432.96,78.32 C432.699999,78.7533355 432.483334,79.2299974 432.31,79.75 C432.136666,80.1833355 431.941668,80.6166645 431.725,81.05 C431.508332,81.4833355 431.270001,81.9166645 431.01,82.35 C430.489997,83.3900052 429.710005,84.0399987 428.67,84.3 C427.889996,84.7333355 427.066671,84.8633342 426.2,84.69 C426.026666,84.6033329 425.853334,84.56 425.68,84.56 C425.506666,84.56 425.333334,84.4300013 425.16,84.17 L425.03,84.04 C424.509997,84.1266671 424.076668,83.9533355 423.73,83.52 C423.383332,83.0866645 422.993336,82.7833342 422.56,82.61 C422.386666,82.4366658 422.3,82.2200013 422.3,81.96 C422.473334,81.6999987 422.516667,81.4833342 422.43,81.31 L422.17,80.79 C421.909999,80.2699974 421.650001,79.7283361 421.39,79.165 C421.129999,78.6016638 420.826668,78.0600026 420.48,77.54 C420.306666,77.0199974 420.003335,76.9766645 419.57,77.41 Z M426.59,68.18 C425.896663,68.7000026 425.268336,69.3499961 424.705,70.13 C424.141664,70.9100039 423.55667,71.6466632 422.95,72.34 L422.04,73.77 C421.519997,74.636671 421.606663,75.2866645 422.3,75.72 C422.473334,75.8933342 422.668332,76.0449993 422.885,76.175 C423.101668,76.3050007 423.296666,76.4566658 423.47,76.63 C423.903336,77.0633355 424.358331,77.3016664 424.835,77.345 C425.311669,77.3883335 425.809997,77.3666671 426.33,77.28 C426.763335,77.1066658 427.153332,76.825002 427.5,76.435 C427.846668,76.0449981 428.149999,75.6333355 428.41,75.2 C428.843335,74.0733277 429.211665,73.271669 429.515,72.795 C429.818335,72.3183309 430.186665,71.5166723 430.62,70.39 C431.140003,69.1766606 431.313334,68.3100026 431.14,67.79 C430.966666,67.2699974 430.620003,66.9666671 430.1,66.88 C429.579997,66.7933329 428.995003,66.9016651 428.345,67.205 C427.694997,67.5083348 427.110003,67.8333316 426.59,68.18 Z M406.83,90.93 L406.57,91.06 L406.96,92.1 C406.96,92.2733342 407.024999,92.4466658 407.155,92.62 C407.285001,92.7933342 407.263334,93.0099987 407.09,93.27 L406.83,93.01 C406.483332,92.3166632 406.245001,91.5800039 406.115,90.8 C405.984999,90.0199961 405.833334,89.196671 405.66,88.33 L405.66,87.94 C405.66,86.9866619 405.681666,86.0333381 405.725,85.08 C405.768334,84.1266619 405.919999,83.1733381 406.18,82.22 C406.353334,81.6999974 406.44,81.3100013 406.44,81.05 L406.44,80.14 C406.006664,81.006671 405.746667,81.6133316 405.66,81.96 L405.27,83.78 C405.009999,85.513342 404.944999,87.1383258 405.075,88.655 C405.205001,90.1716742 405.616663,91.6233264 406.31,93.01 C406.483334,93.2700013 406.656666,93.5083322 406.83,93.725 C407.003334,93.9416677 407.176666,94.1799987 407.35,94.44 C407.523334,94.7000013 407.826664,94.8733329 408.26,94.96 L408.65,94.96 C408.476666,94.6133316 408.303334,94.3100013 408.13,94.05 C407.956666,93.7899987 407.783334,93.4866684 407.61,93.14 C407.436666,92.7066645 407.306667,92.3166684 407.22,91.97 C407.133333,91.6233316 407.003334,91.2766684 406.83,90.93 Z M406.83,82.35 C406.656666,82.5233342 406.57,82.6533329 406.57,82.74 C406.223332,83.7800052 406.05,84.7983283 406.05,85.795 C406.05,86.7916716 406.136666,87.7666619 406.31,88.72 L406.57,88.98 L406.96,84.95 C407.046667,84.5166645 407.09,84.0833355 407.09,83.65 C407.09,83.2166645 407.003334,82.7833355 406.83,82.35 Z" id="The-Copy-2"></path>
                <path d="M60.3250023,459 L43.5250023,459 C42.6250023,456.3 42.0250023,454.65 42.0250023,446.1 L42.0250023,429.6 C42.0250023,419.85 38.7250023,416.25 31.2250023,416.25 L25.5250023,416.25 L25.5250023,459 L9.02500229,459 L9.02500229,354 L33.9250023,354 C51.0250023,354 58.3750023,361.95 58.3750023,378.15 L58.3750023,386.4 C58.3750023,397.2 54.9250023,404.1 47.5750023,407.55 L47.5750023,407.85 C55.8250023,411.3 58.5250023,419.1 58.5250023,430.05 L58.5250023,446.25 C58.5250023,451.35 58.6750023,455.1 60.3250023,459 Z M33.4750023,369 L25.5250023,369 L25.5250023,401.25 L31.9750023,401.25 C38.1250023,401.25 41.8750023,398.55 41.8750023,390.15 L41.8750023,379.8 C41.8750023,372.3 39.3250023,369 33.4750023,369 Z M124.375002,354 L124.375002,433.95 C124.375002,450.75 132.775002,460.35 148.975002,460.35 C165.175002,460.35 173.575002,450.75 173.575002,433.95 L173.575002,354 L157.975002,354 L157.975002,435 C157.975002,442.5 154.675002,445.2 149.425002,445.2 C144.175002,445.2 140.875002,442.5 140.875002,435 L140.875002,354 L124.375002,354 Z M275.875001,459 L292.825001,459 L292.825001,354 L278.125001,354 L278.125001,416.85 L277.825001,416.85 L261.175001,354 L240.475001,354 L240.475001,459 L255.325001,459 L255.325001,382.95 L255.625001,382.95 L275.875001,459 Z M395.725,459 L412.675,459 L412.675,354 L397.975,354 L397.975,416.85 L397.675,416.85 L381.025,354 L360.325,354 L360.325,459 L375.175,459 L375.175,382.95 L375.475,382.95 L395.725,459 Z M480.324999,459 L496.824999,459 L496.824999,354 L480.324999,354 L480.324999,459 Z M599.874998,459 L616.824998,459 L616.824998,354 L602.124998,354 L602.124998,416.85 L601.824998,416.85 L585.174998,354 L564.474998,354 L564.474998,459 L579.324998,459 L579.324998,382.95 L579.624998,382.95 L599.874998,459 Z M709.224998,415.5 L716.724998,415.5 L716.724998,434.85 C716.724998,442.35 713.424998,445.05 708.174998,445.05 C702.924998,445.05 699.624998,442.35 699.624998,434.85 L699.624998,378.15 C699.624998,370.65 702.924998,367.8 708.174998,367.8 C713.424998,367.8 716.724998,370.65 716.724998,378.15 L716.724998,389.4 L732.324998,389.4 L732.324998,379.2 C732.324998,362.4 723.924998,352.8 707.724998,352.8 C691.524998,352.8 683.124998,362.4 683.124998,379.2 L683.124998,433.8 C683.124998,450.6 691.524998,460.2 707.724998,460.2 C723.924998,460.2 732.324998,450.6 732.324998,433.8 L732.324998,400.5 L709.224998,400.5 L709.224998,415.5 Z" id="RUNNING-Copy-2"></path>
                <path d="M47.1913014,151.9 C72.8213014,151.9 85.4033014,166.113 85.4033014,192.209 L85.4033014,213.412 C85.4033014,239.508 72.8213014,253.721 47.1913014,253.721 L35.0753014,253.721 L35.0753014,315 L9.44530138,315 L9.44530138,151.9 L47.1913014,151.9 Z M47.1913014,175.2 L35.0753014,175.2 L35.0753014,230.421 L47.1913014,230.421 C55.3463014,230.421 59.7733014,226.693 59.7733014,215.043 L59.7733014,190.578 C59.7733014,178.928 55.3463014,175.2 47.1913014,175.2 Z M146.575186,151.9 L146.575186,276.089 C146.575186,302.185 159.623186,317.097 184.787186,317.097 C209.951186,317.097 222.999186,302.185 222.999186,276.089 L222.999186,151.9 L198.767186,151.9 L198.767186,277.72 C198.767186,289.37 193.641186,293.564 185.486186,293.564 C177.331186,293.564 172.205186,289.37 172.205186,277.72 L172.205186,151.9 L146.575186,151.9 Z M329.60607,151.9 C356.16807,151.9 367.58507,164.249 367.58507,189.413 L367.58507,195.238 C367.58507,212.014 362.45907,222.499 351.04207,227.858 L351.04207,228.324 C364.78907,233.683 370.14807,245.799 370.14807,263.041 L370.14807,276.322 C370.14807,301.486 356.86707,315 331.23707,315 L290.92807,315 L290.92807,151.9 L329.60607,151.9 Z M327.97507,241.605 L316.55807,241.605 L316.55807,291.7 L331.23707,291.7 C339.85807,291.7 344.51807,287.739 344.51807,275.623 L344.51807,261.41 C344.51807,246.265 339.62507,241.605 327.97507,241.605 Z M328.90707,175.2 L316.55807,175.2 L316.55807,218.305 L326.57707,218.305 C336.13007,218.305 341.95507,214.111 341.95507,201.063 L341.95507,191.976 C341.95507,180.326 337.99407,175.2 328.90707,175.2 Z M435.979954,315 L503.782954,315 L503.782954,291.7 L461.609954,291.7 L461.609954,151.9 L435.979954,151.9 L435.979954,315 Z M565.420838,315 L591.050838,315 L591.050838,151.9 L565.420838,151.9 L565.420838,315 Z M710.239722,254.187 L710.239722,277.487 C710.239722,289.137 705.113722,293.331 696.958722,293.331 C688.803722,293.331 683.677722,289.137 683.677722,277.487 L683.677722,189.413 C683.677722,177.763 688.803722,173.336 696.958722,173.336 C705.113722,173.336 710.239722,177.763 710.239722,189.413 L710.239722,206.888 L734.471722,206.888 L734.471722,191.044 C734.471722,164.948 721.423722,150.036 696.259722,150.036 C671.095722,150.036 658.047722,164.948 658.047722,191.044 L658.047722,275.856 C658.047722,301.952 671.095722,316.864 696.259722,316.864 C721.423722,316.864 734.471722,301.952 734.471722,275.856 L734.471722,254.187 L710.239722,254.187 Z" id="Public-Copy-2"></path>
            </g>
        </g>
    </g>
</svg>