<?xml version="1.0" encoding="UTF-8"?>
<svg width="30px" height="30px" viewBox="0 0 30 30" version="1.1" xmlns="http://www.w3.org/2000/svg" xmlns:xlink="http://www.w3.org/1999/xlink">
    <!-- Generator: Sketch 46.2 (44496) - http://www.bohemiancoding.com/sketch -->
    <title>Opportunities Icon</title>
    <desc>Created with Sketch.</desc>
    <defs></defs>
    <g id="Stylesheet" stroke="none" stroke-width="1" fill="none" fill-rule="evenodd">
        <g id="Icons-and-symbols" transform="translate(-722.000000, -581.000000)">
            <g id="Opportunities" transform="translate(713.000000, 569.000000)">
                <g id="Opportunities-Icon" transform="translate(9.000000, 12.000000)">
                    <circle id="Oval-3" fill="#F1F6FD" cx="15" cy="15" r="15"></circle>
                    <g id="bulb---blue">
                        <polygon id="a" points="0 0 29.1647485 0 29.1647485 29.1647485 0 29.1647485"></polygon>
                        <path d="M11.5714286,24.7164286 C11.5714286,25.3461785 12.0857143,25.8614285 12.7142857,25.8614285 L17.2857143,25.8614285 C17.9142857,25.8614285 18.4285714,25.3461785 18.4285714,24.7164286 L18.4285714,23.5714286 L11.5714286,23.5714286 L11.5714286,24.7164286 Z" id="Path" fill="#0095F1"></path>
                        <path d="M15,3 C19.4114286,3 23,6.58857143 23,11 C23,13.72 21.64,16.1085714 19.5714286,17.56 L19.5714286,20.1428571 C19.5714286,20.7714286 19.0571429,21.2857143 18.4285714,21.2857143 L11.5714286,21.2857143 C10.9428571,21.2857143 10.4285714,20.7714286 10.4285714,20.1428571 L10.4285714,17.56 C8.36,16.1085714 7,13.72 7,11 C7,6.58857143 10.5885714,3 15,3 Z M18.2571429,15.6857143 C19.8,14.6114286 20.7142857,12.8628571 20.7142857,11 C20.7142857,7.84571429 18.1542857,5.28571429 15,5.28571429 C11.8457143,5.28571429 9.28571429,7.84571429 9.28571429,11 C9.28571429,12.8628571 10.2,14.6114286 11.7428571,15.6857143 L12.7142857,16.3714286 L12.7142857,19 L17.2857143,19 L17.2857143,16.3714286 L18.2571429,15.6857143 Z" id="Shape" fill="#0095F1" fill-rule="nonzero"></path>
                    </g>
                </g>
            </g>
        </g>
    </g>
</svg>