<?xml version="1.0" encoding="UTF-8"?>
<svg width="30px" height="30px" viewBox="0 0 30 30" version="1.1" xmlns="http://www.w3.org/2000/svg" xmlns:xlink="http://www.w3.org/1999/xlink">
    <!-- Generator: Sketch 46.2 (44496) - http://www.bohemiancoding.com/sketch -->
    <title>Documents Icon</title>
    <desc>Created with Sketch.</desc>
    <defs></defs>
    <g id="Stylesheet" stroke="none" stroke-width="1" fill="none" fill-rule="evenodd">
        <g id="Icons-and-symbols" transform="translate(-512.000000, -635.000000)">
            <g id="Documents" transform="translate(503.000000, 623.000000)">
                <g id="Documents-Icon" transform="translate(9.000000, 12.000000)">
                    <circle id="Oval-3" fill="#F1F6FD" cx="15" cy="15" r="15"></circle>
                    <path d="M12,18 L25.6903232,18 L25.6903232,20.5 L12,20.5 L12,18 Z M12,14 L25.6903232,14 L25.6903232,16.5 L12,16.5 L12,14 Z M12,10 L25.6903232,10 L25.6903232,12.5 L12,12.5 L12,10 Z M12,6 L25.5572683,6 L25.5572683,8.5 L12,8.5 L12,6 Z M12,22 L19.9134222,22 L19.9134222,24.5 L12,24.5 L12,22 Z M6,6 L10,6 C10.5522847,6 11,6.44771525 11,7 L11,9 C11,9.55228475 10.5522847,10 10,10 L6,10 C5.44771525,10 5,9.55228475 5,9 L5,7 L5,7 C5,6.44771525 5.44771525,6 6,6 L6,6 Z M6,11 L10,11 C10.5522847,11 11,11.4477153 11,12 L11,14 C11,14.5522847 10.5522847,15 10,15 L6,15 C5.44771525,15 5,14.5522847 5,14 L5,12 C5,11.4477153 5.44771525,11 6,11 L6,11 Z M6,16 L10,16 C10.5522847,16 11,16.4477153 11,17 L11,19 C11,19.5522847 10.5522847,20 10,20 L6,20 C5.44771525,20 5,19.5522847 5,19 L5,17 C5,16.4477153 5.44771525,16 6,16 L6,16 Z M6,21 L10,21 C10.5522847,21 11,21.4477153 11,22 L11,24 C11,24.5522847 10.5522847,25 10,25 L6,25 C5.44771525,25 5,24.5522847 5,24 L5,22 C5,21.4477153 5.44771525,21 6,21 L6,21 Z" id="Rectangle-18" fill="#93969C" fill-rule="nonzero"></path>
                </g>
            </g>
        </g>
    </g>
</svg>