<?xml version="1.0" encoding="UTF-8"?>
<svg width="30px" height="30px" viewBox="0 0 30 30" version="1.1" xmlns="http://www.w3.org/2000/svg" xmlns:xlink="http://www.w3.org/1999/xlink">
    <!-- Generator: Sketch 46.2 (44496) - http://www.bohemiancoding.com/sketch -->
    <title>Queries Icon</title>
    <desc>Created with Sketch.</desc>
    <defs>
        <circle id="path-1" cx="15" cy="15" r="15"></circle>
    </defs>
    <g id="Stylesheet" stroke="none" stroke-width="1" fill="none" fill-rule="evenodd">
        <g id="Icons-and-symbols" transform="translate(-512.000000, -788.000000)">
            <g id="Queries" transform="translate(503.000000, 780.000000)">
                <g id="Queries-Icon" transform="translate(9.000000, 8.000000)">
                    <g id="OVERVIEW">
                        <g>
                            <mask id="mask-2" fill="white">
                                <use xlink:href="#path-1"></use>
                            </mask>
                            <use id="Oval-3" fill="#F1F6FD" xlink:href="#path-1"></use>
                            <circle id="Oval" mask="url(#mask-2)" cx="15" cy="15" r="15"></circle>
                        </g>
                    </g>
                    <g id="ic_inbox_black_24px" transform="translate(3.000000, 3.000000)">
                        <path d="M19,3 L4.99,3 C3.88,3 3.01,3.89 3.01,5 L3,19 C3,20.1 3.88,21 4.99,21 L19,21 C20.1,21 21,20.1 21,19 L21,5 C21,3.89 20.1,3 19,3 Z M19,15 L15,15 C15,16.66 13.65,18 12,18 C10.35,18 9,16.66 9,15 L4.99,15 L4.99,5 L19,5 L19,15 Z" id="Shape" fill="#93969C" fill-rule="nonzero"></path>
                        <polygon id="Shape" points="0 0 24 0 24 24 0 24"></polygon>
                    </g>
                </g>
            </g>
        </g>
    </g>
</svg>