<?xml version="1.0" encoding="UTF-8"?>
<svg width="30px" height="30px" viewBox="0 0 30 30" version="1.1" xmlns="http://www.w3.org/2000/svg" xmlns:xlink="http://www.w3.org/1999/xlink">
    <!-- Generator: Sketch 46.2 (44496) - http://www.bohemiancoding.com/sketch -->
    <title>Grouper Icon</title>
    <desc>Created with Sketch.</desc>
    <defs></defs>
    <g id="Stylesheet" stroke="none" stroke-width="1" fill="none" fill-rule="evenodd">
        <g id="Icons-and-symbols" transform="translate(-512.000000, -739.000000)">
            <g id="Grouper" transform="translate(503.000000, 731.000000)">
                <g id="Grouper-Icon" transform="translate(9.000000, 8.000000)">
                    <circle id="Oval-3" fill="#F1F6FD" cx="15" cy="15" r="15"></circle>
                    <path d="M11.7509834,8.8073435 L12.35515,8.8073435 L14.1332078,13.7565598 C13.9541515,13.9415834 13.817426,14.1678229 13.7386419,14.4196676 L11.7509834,14.4196676 L11.7509834,13.5301064 C11.7509834,12.9778217 11.3032681,12.5301064 10.7509834,12.5301064 L5.09816142,12.5301064 L5.09816142,12.5301064 C4.54587667,12.5301064 4.09816142,12.9778217 4.09816142,13.5301064 L4.09816142,16.3092289 C4.09816142,16.8615136 4.54587667,17.3092289 5.09816142,17.3092289 L10.7509834,17.3092289 C11.3032681,17.3092289 11.7509834,16.8615136 11.7509834,16.3092289 L11.7509834,15.4196676 L13.7386419,15.4196676 C13.8204114,15.6810556 13.9645967,15.914861 14.1537445,16.1036306 L12.35515,21.1100107 L11.7509834,21.1100107 L11.7509834,20.2208778 C11.7509834,19.6685931 11.3032681,19.2208778 10.7509834,19.2208778 L5.09816142,19.2208778 L5.09816142,19.2208778 C4.54587667,19.2208778 4.09816142,19.6685931 4.09816142,20.2208778 L4.09816142,20.2208778 L4.09816142,23.0000003 C4.09816142,23.552285 4.54587667,24.0000003 5.09816142,24.0000003 L10.7509834,24.0000003 C11.3032681,24.0000003 11.7509834,23.552285 11.7509834,23.0000003 L11.7509834,22.1100107 L13.0584657,22.1100107 L15.0494794,16.5680325 C15.1423656,16.5840265 15.2378722,16.5923605 15.3353252,16.5923605 C16.0849621,16.5923605 16.7194223,16.0992305 16.9320085,15.4196676 L19.3975793,15.4196676 L19.3975793,16.7871411 C19.3975793,17.3394258 19.8452945,17.7871411 20.3975793,17.7871411 L20.3975793,17.7871411 L26.9999997,17.7871411 C27.5522844,17.7871411 27.9999997,17.3394258 27.9999997,16.7871411 L27.9999997,13.0521942 C27.9999997,12.4999094 27.5522844,12.0521942 26.9999997,12.0521942 L20.3975793,12.0521942 C19.8452945,12.0521942 19.3975793,12.4999094 19.3975793,13.0521942 L19.3975793,14.4196676 L16.9320085,14.4196676 C16.7194223,13.7401048 16.0849621,13.2469748 15.3353252,13.2469748 C15.2286418,13.2469748 15.124291,13.2569622 15.0231569,13.2760531 L13.0584657,7.8073435 L11.7509834,7.8073435 L11.7509834,6.839335 C11.7509834,6.28705025 11.3032681,5.839335 10.7509834,5.839335 L5.09293473,5.839335 L5.09293473,5.839335 C4.54064998,5.839335 4.09293472,6.28705025 4.09293472,6.839335 L4.09293472,6.839335 L4.09293472,9.61845744 C4.09293472,10.1707422 4.54064998,10.6184574 5.09293473,10.6184574 L5.09293473,10.6184574 L10.7509834,10.6184574 C11.3032681,10.6184574 11.7509834,10.1707422 11.7509834,9.61845744 L11.7509834,9.61845744 L11.7509834,8.8073435 Z" id="Oval-10" fill="#93969C" fill-rule="nonzero"></path>
                </g>
            </g>
        </g>
    </g>
</svg>