<?xml version="1.0" encoding="UTF-8"?>
<svg width="30px" height="30px" viewBox="0 0 30 30" version="1.1" xmlns="http://www.w3.org/2000/svg" xmlns:xlink="http://www.w3.org/1999/xlink">
    <!-- Generator: Sketch 46.2 (44496) - http://www.bohemiancoding.com/sketch -->
    <title>Grouper Icon</title>
    <desc>Created with Sketch.</desc>
    <defs></defs>
    <g id="Stylesheet" stroke="none" stroke-width="1" fill="none" fill-rule="evenodd">
        <g id="Icons-and-symbols" transform="translate(-722.000000, -739.000000)">
            <g id="Grouper" transform="translate(713.000000, 731.000000)">
                <g id="Grouper-Icon" transform="translate(9.000000, 8.000000)">
                    <circle id="Oval-3" fill="#F1F6FD" cx="15" cy="15" r="15"></circle>
                    <path d="M11.6580487,8.9680085 L12.2622153,8.9680085 L14.0402731,13.9172248 C13.8612168,14.1022484 13.7244913,14.3284879 13.6457072,14.5803326 L11.6580487,14.5803326 L11.6580487,13.6907714 C11.6580487,13.1384867 11.2103334,12.6907714 10.6580487,12.6907714 L5.0052267,12.6907714 L5.0052267,12.6907714 C4.45294195,12.6907714 4.00522669,13.1384867 4.00522669,13.6907714 L4.00522669,16.4698939 C4.00522669,17.0221786 4.45294195,17.4698939 5.0052267,17.4698939 L10.6580487,17.4698939 C11.2103334,17.4698939 11.6580487,17.0221786 11.6580487,16.4698939 L11.6580487,15.5803326 L13.6457072,15.5803326 C13.7274767,15.8417206 13.871662,16.075526 14.0608098,16.2642956 L12.2622153,21.2706757 L11.6580487,21.2706757 L11.6580487,20.3815428 C11.6580487,19.8292581 11.2103334,19.3815428 10.6580487,19.3815428 L5.0052267,19.3815428 L5.0052267,19.3815428 C4.45294195,19.3815428 4.00522669,19.8292581 4.00522669,20.3815428 L4.00522669,20.3815428 L4.00522669,23.1606653 C4.00522669,23.71295 4.45294195,24.1606653 5.0052267,24.1606653 L10.6580487,24.1606653 C11.2103334,24.1606653 11.6580487,23.71295 11.6580487,23.1606653 L11.6580487,22.2706757 L12.965531,22.2706757 L14.9565447,16.7286975 C15.0494309,16.7446915 15.1449375,16.7530255 15.2423905,16.7530255 C15.9920274,16.7530255 16.6264876,16.2598955 16.8390738,15.5803326 L19.3046446,15.5803326 L19.3046446,16.9478061 C19.3046446,17.5000908 19.7523598,17.9478061 20.3046446,17.9478061 L20.3046446,17.9478061 L26.907065,17.9478061 C27.4593497,17.9478061 27.907065,17.5000908 27.907065,16.9478061 L27.907065,13.2128592 C27.907065,12.6605744 27.4593497,12.2128592 26.907065,12.2128592 L20.3046446,12.2128592 C19.7523598,12.2128592 19.3046446,12.6605744 19.3046446,13.2128592 L19.3046446,14.5803326 L16.8390738,14.5803326 C16.6264876,13.9007698 15.9920274,13.4076398 15.2423905,13.4076398 C15.1357071,13.4076398 15.0313563,13.4176272 14.9302222,13.4367181 L12.965531,7.9680085 L11.6580487,7.9680085 L11.6580487,7 C11.6580487,6.44771525 11.2103334,6 10.6580487,6 L5.00000001,6 L5.00000001,6 C4.44771526,6 4,6.44771525 4,7 L4,7 L4,9.77912244 C4,10.3314072 4.44771526,10.7791224 5.00000001,10.7791224 L5.00000001,10.7791224 L10.6580487,10.7791224 C11.2103334,10.7791224 11.6580487,10.3314072 11.6580487,9.77912244 L11.6580487,9.77912244 L11.6580487,8.9680085 Z" id="Oval-10" fill="#0095F1" fill-rule="nonzero"></path>
                </g>
            </g>
        </g>
    </g>
</svg>