<?xml version="1.0" encoding="UTF-8"?>
<svg width="33px" height="30px" viewBox="0 0 33 30" version="1.1" xmlns="http://www.w3.org/2000/svg" xmlns:xlink="http://www.w3.org/1999/xlink">
    <!-- Generator: Sketch 46.2 (44496) - http://www.bohemiancoding.com/sketch -->
    <title>Labs and Vitals</title>
    <desc>Created with Sketch.</desc>
    <defs></defs>
    <g id="Stylesheet" stroke="none" stroke-width="1" fill="none" fill-rule="evenodd">
        <g id="Icons-and-symbols" transform="translate(-721.000000, -690.000000)">
            <g id="Labs-and-Vitals" transform="translate(713.000000, 677.000000)">
                <g transform="translate(8.000000, 13.000000)">
                    <circle id="Oval-3" fill="#F1F6FD" cx="16" cy="15" r="15"></circle>
                    <path d="M26.2736706,11.0345934 C26.8060764,11.457645 27.4799064,11.7103695 28.2127634,11.7103695 C29.9355444,11.7103695 31.3321343,10.3137796 31.3321343,8.59099864 C31.3321343,6.86821771 29.9355444,5.47162782 28.2127634,5.47162782 C26.4899825,5.47162782 25.0933926,6.86821771 25.0933926,8.59099864 C25.0933926,9.21968512 25.2793772,9.80493257 25.599328,10.2947225 L21.3883747,14.5056758 C20.8510188,14.0668988 20.1646404,13.8037319 19.4167961,13.8037319 C18.3927751,13.8037319 17.4840011,14.2971631 16.9152667,15.0592326 L14.2511186,13.2276308 C14.4341016,12.8307251 14.5361669,12.3888332 14.5361669,11.9231028 C14.5361669,10.2003218 13.1395771,8.80373193 11.4167961,8.80373193 C9.6940152,8.80373193 8.29742531,10.2003218 8.29742531,11.9231028 C8.29742531,12.7019007 8.58282821,13.4140392 9.05474914,13.9606335 L6.31691718,17.6110761 C5.79330942,17.2134003 5.14021163,16.9773801 4.43198838,16.9773801 C2.70920744,16.9773801 1.31261756,18.37397 1.31261756,20.0967509 C1.31261756,21.8195318 2.70920744,23.2161217 4.43198838,23.2161217 C6.15476931,23.2161217 7.5513592,21.8195318 7.5513592,20.0967509 C7.5513592,19.44831 7.35350301,18.8460808 7.01486836,18.3471412 L9.82187531,14.6044653 C10.2885657,14.8826591 10.8340176,15.0424735 11.4167961,15.0424735 C12.314204,15.0424735 13.1231021,14.6635178 13.692195,14.0569014 L16.4510255,15.9535973 C16.351331,16.2587641 16.2974253,16.5846382 16.2974253,16.9231027 C16.2974253,18.6458837 17.6940152,20.0424735 19.4167961,20.0424735 C21.1395771,20.0424735 22.5361669,18.6458837 22.5361669,16.9231027 C22.5361669,16.3096137 22.3590654,15.737489 22.0531989,15.2550651 L26.2736706,11.0345934 Z" id="Oval-2" fill="#0095F1" fill-rule="nonzero" transform="translate(16.322376, 14.343875) rotate(10.000000) translate(-16.322376, -14.343875) "></path>
                </g>
            </g>
        </g>
    </g>
</svg>