<?xml version="1.0" encoding="UTF-8"?>
<svg width="32px" height="30px" viewBox="0 0 32 30" version="1.1" xmlns="http://www.w3.org/2000/svg" xmlns:xlink="http://www.w3.org/1999/xlink">
    <!-- Generator: Sketch 46.2 (44496) - http://www.bohemiancoding.com/sketch -->
    <title>Labs and Vitals</title>
    <desc>Created with Sketch.</desc>
    <defs></defs>
    <g id="Stylesheet" stroke="none" stroke-width="1" fill="none" fill-rule="evenodd">
        <g id="Icons-and-symbols" transform="translate(-511.000000, -690.000000)">
            <g id="Labs-and-Vitals" transform="translate(503.000000, 677.000000)">
                <g transform="translate(7.000000, 13.000000)">
                    <circle id="Oval-3" fill="#F1F6FD" cx="17" cy="15" r="15"></circle>
                    <path d="M26.8299261,10.7781483 C27.3623319,11.2011999 28.0361619,11.4539244 28.7690189,11.4539244 C30.4917999,11.4539244 31.8883898,10.0573345 31.8883898,8.33455357 C31.8883898,6.61177264 30.4917999,5.21518275 28.7690189,5.21518275 C27.046238,5.21518275 25.6496481,6.61177264 25.6496481,8.33455357 C25.6496481,8.96324005 25.8356327,9.5484875 26.1555835,10.0382774 L21.9446302,14.2492307 C21.4072743,13.8104537 20.7208959,13.5472869 19.9730516,13.5472869 C18.9490306,13.5472869 18.0402566,14.040718 17.4715222,14.8027876 L14.8073741,12.9711857 C14.9903571,12.57428 15.0924224,12.1323882 15.0924224,11.6666577 C15.0924224,9.94387675 13.6958326,8.54728686 11.9730516,8.54728686 C10.2502707,8.54728686 8.85368078,9.94387675 8.85368078,11.6666577 C8.85368078,12.4454556 9.13908368,13.1575942 9.61100461,13.7041884 L6.87317265,17.3546311 C6.34956489,16.9569553 5.6964671,16.7209351 4.98824385,16.7209351 C3.26546291,16.7209351 1.86887302,18.117525 1.86887302,19.8403059 C1.86887302,21.5630868 3.26546291,22.9596767 4.98824385,22.9596767 C6.71102478,22.9596767 8.10761467,21.5630868 8.10761467,19.8403059 C8.10761467,19.191865 7.90975848,18.5896358 7.57112383,18.0906962 L10.3781308,14.3480202 C10.8448211,14.6262141 11.390273,14.7860285 11.9730516,14.7860285 C12.8704595,14.7860285 13.6793576,14.4070727 14.2484505,13.8004563 L17.007281,15.6971523 C16.9075865,16.0023191 16.8536808,16.3281932 16.8536808,16.6666577 C16.8536808,18.3894387 18.2502707,19.7860285 19.9730516,19.7860285 C21.6958326,19.7860285 23.0924224,18.3894387 23.0924224,16.6666577 C23.0924224,16.0531687 22.9153209,15.481044 22.6094544,14.9986201 L26.8299261,10.7781483 Z" id="Oval-2" fill="#93969C" fill-rule="nonzero" transform="translate(16.878631, 14.087430) rotate(10.000000) translate(-16.878631, -14.087430) "></path>
                </g>
            </g>
        </g>
    </g>
</svg>