<?xml version="1.0" encoding="UTF-8"?>
<svg width="30px" height="30px" viewBox="0 0 30 30" version="1.1" xmlns="http://www.w3.org/2000/svg" xmlns:xlink="http://www.w3.org/1999/xlink">
    <!-- Generator: Sketch 46.2 (44496) - http://www.bohemiancoding.com/sketch -->
    <title>Opportunities Icon</title>
    <desc>Created with Sketch.</desc>
    <defs></defs>
    <g id="Stylesheet" stroke="none" stroke-width="1" fill="none" fill-rule="evenodd">
        <g id="Icons-and-symbols" transform="translate(-512.000000, -581.000000)">
            <g id="Opportunities" transform="translate(503.000000, 569.000000)">
                <g id="Opportunities-Icon" transform="translate(9.000000, 12.000000)">
                    <circle id="Oval-3" fill="#F1F6FD" cx="15" cy="15" r="15"></circle>
                    <g transform="translate(7.000000, 3.000000)" fill-opacity="0.54" fill-rule="nonzero" fill="#353D48">
                        <path d="M4.5714286,21.7164286 C4.5714286,22.3461785 5.0857143,22.8614285 5.7142857,22.8614285 L10.2857143,22.8614285 C10.9142857,22.8614285 11.4285714,22.3461785 11.4285714,21.7164286 L11.4285714,20.5714286 L4.5714286,20.5714286 L4.5714286,21.7164286 Z" id="Path"></path>
                        <path d="M8,0 C12.4114286,0 16,3.58857143 16,8 C16,10.72 14.64,13.1085714 12.5714286,14.56 L12.5714286,17.1428571 C12.5714286,17.7714286 12.0571429,18.2857143 11.4285714,18.2857143 L4.5714286,18.2857143 C3.9428571,18.2857143 3.4285714,17.7714286 3.4285714,17.1428571 L3.4285714,14.56 C1.36,13.1085714 0,10.72 0,8 C0,3.58857143 3.5885714,0 8,0 Z M11.2571429,12.6857143 C12.8,11.6114286 13.7142857,9.8628571 13.7142857,8 C13.7142857,4.84571429 11.1542857,2.28571429 8,2.28571429 C4.8457143,2.28571429 2.28571429,4.84571429 2.28571429,8 C2.28571429,9.8628571 3.2,11.6114286 4.7428571,12.6857143 L5.7142857,13.3714286 L5.7142857,16 L10.2857143,16 L10.2857143,13.3714286 L11.2571429,12.6857143 Z" id="Shape"></path>
                    </g>
                </g>
            </g>
        </g>
    </g>
</svg>