<?xml version="1.0" encoding="UTF-8"?>
<svg width="30px" height="30px" viewBox="0 0 30 30" version="1.1" xmlns="http://www.w3.org/2000/svg" xmlns:xlink="http://www.w3.org/1999/xlink">
    <!-- Generator: Sketch 46.2 (44496) - http://www.bohemiancoding.com/sketch -->
    <title>Timeline Icon</title>
    <desc>Created with Sketch.</desc>
    <defs></defs>
    <g id="Stylesheet" stroke="none" stroke-width="1" fill="none" fill-rule="evenodd">
        <g id="Icons-and-symbols" transform="translate(-722.000000, -528.000000)">
            <g id="Timeline" transform="translate(713.000000, 521.000000)">
                <g id="Timeline-Icon" transform="translate(9.000000, 7.000000)">
                    <circle id="Oval-3" fill="#F1F6FD" cx="15" cy="15" r="15"></circle>
                    <path d="M13,15 L15,15 L15,16 L13,16 L13,15 Z M6,6 L12,6 L12,6 C12.5522848,6 13,6.44771525 13,7 L13,10 L13,10 C13,10.5522847 12.5522848,11 12,11 L6,11 L6,11 C5.44771525,11 5,10.5522847 5,10 L5,7 L5,7 C5,6.44771525 5.44771525,6 6,6 Z M16,3.91464715 L16,27 L15.5,29 L15,27 L15,3.91464715 C14.4174038,3.70872894 14,3.15310941 14,2.5 C14,1.67157287 14.6715729,1 15.5,1 C16.3284271,1 17,1.67157287 17,2.5 C17,3.15310941 16.5825962,3.70872894 16,3.91464715 Z M13,8 L15,8 L15,9 L13,9 L13,8 Z M13,22 L15,22 L15,23 L13,23 L13,22 Z M16,11 L18,11 L18,12 L16,12 L16,11 Z M16,18 L18,18 L18,19 L16,19 L16,18 Z M6,13 L12,13 L12,13 C12.5522848,13 13,13.4477153 13,14 L13,17 L13,17 C13,17.5522847 12.5522848,18 12,18 L6,18 L6,18 C5.44771525,18 5,17.5522847 5,17 L5,14 L5,14 C5,13.4477153 5.44771525,13 6,13 Z M19,9 L25,9 L25,9 C25.5522847,9 26,9.44771525 26,10 L26,13 L26,13 C26,13.5522847 25.5522847,14 25,14 L19,14 L19,14 C18.4477153,14 18,13.5522847 18,13 L18,10 L18,10 C18,9.44771525 18.4477153,9 19,9 Z M19,16 L25,16 L25,16 C25.5522847,16 26,16.4477153 26,17 L26,20 L26,20 C26,20.5522847 25.5522847,21 25,21 L19,21 L19,21 C18.4477153,21 18,20.5522847 18,20 L18,17 L18,17 C18,16.4477153 18.4477153,16 19,16 Z M6,20 L12,20 L12,20 C12.5522848,20 13,20.4477153 13,21 L13,24 L13,24 C13,24.5522847 12.5522848,25 12,25 L6,25 L6,25 C5.44771525,25 5,24.5522847 5,24 L5,21 L5,21 C5,20.4477153 5.44771525,20 6,20 Z" id="Shape" fill="#0095F1" fill-rule="nonzero"></path>
                </g>
            </g>
        </g>
    </g>
</svg>