<?xml version="1.0" encoding="UTF-8"?>
<svg width="315px" height="315px" viewBox="0 0 315 315" version="1.1" xmlns="http://www.w3.org/2000/svg" xmlns:xlink="http://www.w3.org/1999/xlink">
    <!-- Generator: Sketch 46.2 (44496) - http://www.bohemiancoding.com/sketch -->
    <title>documents-image</title>
    <desc>Created with Sketch.</desc>
    <defs>
        <linearGradient x1="39.6720111%" y1="10.2298278%" x2="79.5737255%" y2="87.435864%" id="linearGradient-1">
            <stop stop-color="#000000" stop-opacity="0.0613960598" offset="0%"></stop>
            <stop stop-color="#030303" stop-opacity="0.05" offset="100%"></stop>
        </linearGradient>
    </defs>
    <g id="Documents" stroke="none" stroke-width="1" fill="none" fill-rule="evenodd">
        <g id="Documents---Non-Animation-Ready-Copy" transform="translate(-721.000000, -286.000000)">
            <g id="Select-Document-Message" transform="translate(721.000000, 286.000000)">
                <g id="documents-image">
                    <circle id="Oval" fill="#F6F6F6" fill-rule="nonzero" cx="157.019671" cy="157.019671" r="157.019671"></circle>
                    <path d="M111,64 L54,95 L78,133 L55,149 L80,187 L55,200 L78,236 L55,252 L95.1634372,301.350884 C114.196125,310.338542 142.781106,314.039343 157.019671,314.039343 C242.715404,314.039343 312.368696,245.386324 314.00022,160.080762 L262,59 L128.268547,62.5717587 L124,85 L139,108 L111,64 Z" id="Shape" fill="url(#linearGradient-1)" fill-rule="nonzero"></path>
                    <g id="icon" transform="translate(51.000000, 59.000000)" fill="#FFFFFF">
                        <path d="M72.0626732,123.789474 L213,123.789474 L213,149.578947 L72.0626732,149.578947 L72.0626732,123.789474 Z M11,0 L50.7680056,0 L50.7680056,1.77635684e-15 C56.8431378,6.6037315e-16 61.7680056,4.92486775 61.7680056,11 L61.7680056,30.2631579 C61.7680056,36.3382901 56.8431378,41.2631579 50.7680056,41.2631579 L11,41.2631579 L11,41.2631579 C4.92486775,41.2631579 7.43989126e-16,36.3382901 0,30.2631579 L0,11 L0,11 C-7.43989126e-16,4.92486775 4.92486775,2.89234053e-15 11,1.77635684e-15 L11,0 Z M11,51.5789474 L50.7680056,51.5789474 C56.8431378,51.5789474 61.7680056,56.5038151 61.7680056,62.5789474 L61.7680056,81.8421053 C61.7680056,87.9172375 56.8431378,92.8421053 50.7680056,92.8421053 L11,92.8421053 C4.92486775,92.8421053 7.43989126e-16,87.9172375 0,81.8421053 L0,62.5789474 C-7.43989126e-16,56.5038151 4.92486775,51.5789474 11,51.5789474 L11,51.5789474 Z M11,103.157895 L50.7680056,103.157895 L50.7680056,103.157895 C56.8431378,103.157895 61.7680056,108.082762 61.7680056,114.157895 L61.7680056,133.421053 L61.7680056,133.421053 C61.7680056,139.496185 56.8431378,144.421053 50.7680056,144.421053 L11,144.421053 C4.92486775,144.421053 7.43989126e-16,139.496185 0,133.421053 L0,114.157895 C-7.43989126e-16,108.082762 4.92486775,103.157895 11,103.157895 L11,103.157895 Z M11,154.736842 L50.7680056,154.736842 L50.7680056,154.736842 C56.8431378,154.736842 61.7680056,159.66171 61.7680056,165.736842 L61.7680056,185 L61.7680056,185 C61.7680056,191.075132 56.8431378,196 50.7680056,196 L11,196 C4.92486775,196 7.43989126e-16,191.075132 0,185 L0,165.736842 C-7.43989126e-16,159.66171 4.92486775,154.736842 11,154.736842 L11,154.736842 Z M72.0626732,82.5263158 L213,82.5263158 L213,108.315789 L72.0626732,108.315789 L72.0626732,82.5263158 Z M72.0626732,41.2631579 L213,41.2631579 L213,67.0526316 L72.0626732,67.0526316 L72.0626732,41.2631579 Z M72.0626732,0 L211.630244,0 L211.630244,25.7894737 L72.0626732,25.7894737 L72.0626732,0 Z M72.0626732,165.052632 L153.528724,165.052632 L153.528724,190.842105 L72.0626732,190.842105 L72.0626732,165.052632 Z" id="Rectangle-18"></path>
                    </g>
                </g>
            </g>
        </g>
    </g>
</svg>