<?xml version="1.0" encoding="UTF-8"?>
<svg width="315px" height="315px" viewBox="0 0 315 315" version="1.1" xmlns="http://www.w3.org/2000/svg" xmlns:xlink="http://www.w3.org/1999/xlink">
    <!-- Generator: Sketch 46.2 (44496) - http://www.bohemiancoding.com/sketch -->
    <title>grouper-image</title>
    <desc>Created with Sketch.</desc>
    <defs>
        <circle id="path-1" cx="157.019671" cy="157.019671" r="157.019671"></circle>
        <linearGradient x1="39.6720111%" y1="10.2298278%" x2="79.5737255%" y2="87.435864%" id="linearGradient-3">
            <stop stop-color="#000000" stop-opacity="0.0613960598" offset="0%"></stop>
            <stop stop-color="#000000" stop-opacity="0.0596481761" offset="15.3376139%"></stop>
            <stop stop-color="#030303" stop-opacity="0.05" offset="100%"></stop>
        </linearGradient>
    </defs>
    <g id="Documents" stroke="none" stroke-width="1" fill="none" fill-rule="evenodd">
        <g id="Documents---Non-Animation-Ready-Copy" transform="translate(-721.000000, -286.000000)">
            <g id="Select-Document-Message" transform="translate(721.000000, 286.000000)">
                <g id="grouper-image">
                    <mask id="mask-2" fill="white">
                        <use xlink:href="#path-1"></use>
                    </mask>
                    <use id="Oval" fill="#F6F6F6" fill-rule="nonzero" xlink:href="#path-1"></use>
                    <path d="M120,69 L55,95 L75,109 L45,110 L94,180 L46,181 L87,236 L45,248 L82,300 C101.032687,308.987658 142.761435,318 157,318 C242.695733,318 311.368476,267.305562 313,182 L291,134 L182,160 L136,87 L140,108 L120,69 Z" id="Shape" fill="url(#linearGradient-3)" fill-rule="nonzero" mask="url(#mask-2)"></path>
                    <g id="Grouper" mask="url(#mask-2)" fill-rule="nonzero" fill="#FFFFFF">
                        <g transform="translate(42.000000, 63.000000)" id="Oval-10">
                            <path d="M80.081439,30.8883842 L86.3993062,30.8883842 L104.99274,82.3954113 C103.12032,84.3209723 101.69056,86.6754709 100.866702,89.2964459 L80.081439,89.2964459 L80.081439,80.0386865 C80.081439,74.2909996 75.3996091,69.6315788 69.6242792,69.6315788 L10.5118162,69.6315788 L10.5118162,69.6315788 C4.73648632,69.6315788 0.0546563537,74.2909996 0.0546563537,80.0386865 L0.0546563537,108.961314 C0.0546563537,114.709 4.73648632,119.368421 10.5118162,119.368421 L69.6242792,119.368421 C75.3996091,119.368421 80.081439,114.709 80.081439,108.961314 L80.081439,99.7035537 L100.866702,99.7035537 C101.721779,102.423847 103.229547,104.857084 105.207496,106.82163 L86.3993062,158.923567 L80.081439,158.923567 L80.081439,149.670265 C80.081439,143.922579 75.3996091,139.263157 69.6242792,139.263157 L10.5118162,139.263157 L10.5118162,139.263157 C4.73648632,139.263157 0.0546563537,143.922579 0.0546563537,149.670265 L0.0546563537,149.670265 L0.0546563537,178.592892 C0.0546563537,184.340579 4.73648632,189 10.5118162,189 L69.6242792,189 C75.3996091,189 80.081439,184.340579 80.081439,178.592892 L80.081439,169.330675 L93.7539908,169.330675 L114.574339,111.654711 C115.545665,111.821162 116.544393,111.907895 117.563474,111.907895 C125.402547,111.907895 132.037199,106.775838 134.260247,99.7035537 L160.043115,99.7035537 L160.043115,113.934997 C160.043115,119.682684 164.724944,124.342105 170.500275,124.342105 L170.500275,124.342105 L239.54284,124.342105 C245.31817,124.342105 250,119.682684 250,113.934997 L250,75.0650023 C250,69.3173154 245.31817,64.6578946 239.54284,64.6578946 L170.500275,64.6578946 C164.724944,64.6578946 160.043115,69.3173154 160.043115,75.0650023 L160.043115,89.2964459 L134.260247,89.2964459 C132.037199,82.2241625 125.402547,77.0921051 117.563474,77.0921051 C116.447869,77.0921051 115.356656,77.1960454 114.29908,77.3947261 L93.7539908,20.4812764 L80.081439,20.4812764 L80.081439,10.4071077 C80.081439,4.65942083 75.3996091,-6.1608044e-15 69.6242792,0 L10.4571599,0 L10.4571599,2.31084212e-15 C4.68182999,3.36667508e-15 0,4.65942083 0,10.4071077 L0,10.4071077 L0,39.3297343 C0,45.0774212 4.68182999,49.736842 10.4571599,49.736842 L10.4571599,49.736842 L69.6242792,49.736842 C75.3996091,49.736842 80.081439,45.0774212 80.081439,39.3297343 L80.081439,39.3297343 L80.081439,30.8883842 Z"></path>
                        </g>
                    </g>
                </g>
            </g>
        </g>
    </g>
</svg>