<?xml version="1.0" encoding="utf-8"?>
<!-- Generator: Adobe Illustrator 21.1.0, SVG Export Plug-In . SVG Version: 6.00 Build 0)  -->
<svg version="1.1" id="Layer_1" xmlns="http://www.w3.org/2000/svg" xmlns:xlink="http://www.w3.org/1999/xlink" x="0px" y="0px"
	 viewBox="0 0 1200 321" style="enable-background:new 0 0 1200 321;" xml:space="preserve">
<style type="text/css">
	.st0{fill:#EFCD52;}
	.st1{fill:#26B2BF;}
	.st2{fill:#FFFFFF;}
	.st3{fill:#DA5E48;}
</style>
<g>
	<path class="st0" d="M266.7,179.6c-0.8-1.2-2.6-1.3-3.4-0.1c-12.1,16.2-26.3,32.7-42.4,48.6c-15.4,15.3-31.1,28.8-46.8,40.5
		c-1.2,0.9-1.1,2.6,0.1,3.4c49.5,31.3,94.2,41.5,114.1,21.6S298,229.1,266.7,179.6z"/>
	<path class="st1" d="M222.3,96.9c15.5,15.4,29.2,31.3,41.1,47c0.8,1.1,2.4,1,3.1-0.1c31.5-49.6,41.6-94.4,21.7-114.3
		c-20-20-65-9.7-114.8,22.1c-1.1,0.7-1.2,2.3-0.1,3.1C189.7,66.8,206.3,80.9,222.3,96.9z"/>
	<g>
		<path class="st2" d="M55.7,153.5c10-0.1,190.1,0,190.1,0s2.7-0.7,0.9-3.6c-11-14.1-22.6-27.3-36.6-41.2
			c-17.4-17.3-35.4-32.5-53.1-45.3C117.9,35.3,80.3,19.3,53.3,19.3c-12.2,0-22.2,3.3-29.1,10.2C3,50.6,14.8,98.2,51.3,151.5
			C51.4,151.6,52.7,153.5,55.7,153.5z"/>
	</g>
	<path class="st3" d="M52.5,171.3C15.8,224.7,3.9,272.5,25.2,293.6c7,6.9,17,10.2,29.1,10.2c26.9,0,64.6-16,103.6-44.2
		c17.7-12.7,35.7-27.9,53.1-45.3c13.9-13.8,26.3-28,37.3-42.1l0.1-0.1c0.8-0.9,0.7-3.4-1.5-3.4l-190,0.1
		C56.9,168.9,54.3,168.7,52.5,171.3z"/>
</g>
<path class="st2" d="M421.1,70.7c0,5.6-1.9,10.3-5.7,14.1c-3.8,3.8-8.5,5.7-14,5.7s-10.2-1.9-14-5.7c-3.8-3.8-5.7-8.5-5.7-14.1
	s1.9-10.3,5.7-14.1c3.8-3.8,8.5-5.7,14-5.7s10.2,1.9,14,5.7C419.2,60.4,421.1,65.1,421.1,70.7z M385.8,253.6V116.8
	c0-3.5,2.9-6.4,6.4-6.4h18.1c3.5,0,6.4,2.9,6.4,6.4v136.8c0,3.5-2.9,6.4-6.4,6.4h-18.1C388.7,260,385.8,257.1,385.8,253.6z"/>
<path class="st2" d="M517.2,262.5c-21.8,0-39.8-7.1-53.9-21.3s-21.2-32.9-21.2-56s7.3-41.7,21.9-56c14.6-14.2,32.7-21.3,54.5-21.3
	c21.7,0,39.9,7.1,54.5,21.3s21.9,32.8,21.9,55.8s-7.5,41.6-22.4,56C557.4,255.3,539,262.5,517.2,262.5z M549.4,222.8
	c9.1-9.1,13.6-21.6,13.6-37.8c0-16.1-4.4-28.7-13.2-37.6c-8.8-9-19.4-13.4-31.9-13.4s-23,4.5-31.5,13.4c-8.5,9-12.8,21.6-12.8,37.8
	s4.2,28.8,12.5,37.8s18.7,13.4,31.1,13.4C529.6,236.4,540.3,231.9,549.4,222.8z"/>
<path class="st2" d="M639.7,242.8c-15-14.9-22.5-34.3-22.5-58.2c0-22.7,6.7-41.2,20.2-55.4s30.3-21.3,50.4-21.3
	c11.8,0,22.1,2.7,31.1,8s15.9,12.4,20.8,21.1V65.4c0-3.5,2.9-6.4,6.4-6.4h18.4c3.5,0,6.4,2.9,6.4,6.4v188.2c0,3.5-2.9,6.4-6.4,6.4
	h-18.4c-3.5,0-6.4-2.9-6.4-6.4V232c-5.1,9.2-12,16.6-20.9,22.1c-8.5,5.3-18.4,8.1-29.5,8.3C670.8,262.8,652.8,255.8,639.7,242.8z
	 M726.3,221.8c9-9.1,13.4-21.4,13.4-36.8s-4.5-27.6-13.4-36.7c-9-9.1-19.6-13.6-31.9-13.6c-12.3,0-23,4.4-31.9,13.3
	c-9,8.9-13.4,21-13.4,36.4s4.5,27.8,13.4,37.1c9,9.3,19.6,14,31.9,14C706.7,235.6,717.3,231,726.3,221.8z"/>
<path class="st2" d="M842.7,70.7c0,5.6-1.9,10.3-5.7,14.1c-3.8,3.8-8.5,5.7-14,5.7s-10.2-1.9-14-5.7c-3.8-3.8-5.7-8.5-5.7-14.1
	s1.9-10.3,5.7-14.1s8.5-5.7,14-5.7s10.2,1.9,14,5.7C840.8,60.4,842.7,65.1,842.7,70.7z M807.4,253.6V116.8c0-3.5,2.9-6.4,6.4-6.4
	H832c3.5,0,6.4,2.9,6.4,6.4v136.8c0,3.5-2.9,6.4-6.4,6.4h-18.1C810.3,260,807.4,257.1,807.4,253.6z"/>
<path class="st2" d="M907.9,116.8V134c10-17.4,25.9-26.1,47.8-26.1c16.8,0,30.7,5.6,41.7,16.8s16.4,26.9,16.4,47v81.9
	c0,3.5-2.9,6.4-6.4,6.4h-17.9c-3.5,0-6.4-2.9-6.4-6.4v-77.2c0-13.4-3.4-23.7-10-30.8c-6.7-7.2-15.8-10.7-27.4-10.7
	c-11.6,0-20.8,3.6-27.6,10.7c-6.8,7.2-10.2,17.4-10.2,30.8v77.2c0,3.5-2.9,6.4-6.4,6.4h-18.1c-3.5,0-6.4-2.9-6.4-6.4V116.8
	c0-3.5,2.9-6.4,6.4-6.4h18.1C905.1,110.4,907.9,113.2,907.9,116.8z"/>
<path class="st2" d="M1112,262.5c-21.7,0-39.4-7.1-53-21.2c-13.6-14.1-20.4-32.9-20.4-56.2c0-23.4,6.9-42.1,20.6-56.1
	c13.8-14,31.5-21.1,53.4-21.1c21.8,0,39.5,6.7,53.1,20.2s18.2,31.1,18.2,52.8c0,3-0.1,5.9-0.4,8.7c-0.3,3.3-3,5.9-6.4,5.9h-106.8
	c0.7,12.5,4.9,22.4,12.6,29.7s17.3,11,28.9,11c14.6,0,28.3-5.6,36.9-15.8c2.1-2.5,5.5-3.4,8.2-1.6l12.3,9.6c3.1,2,3.8,6.3,1.6,9.2
	c-2.2,2.9-5.5,6.3-12.6,11.5C1146.4,258.1,1129.5,262.5,1112,262.5z M1141.6,145c-8-7.3-17.7-11-29.1-11s-21,3.7-28.7,11
	s-12.1,17.2-13.2,29.5h83.1C1153.6,162.1,1149.6,152.3,1141.6,145z"/>
</svg>
