<?xml version="1.0" encoding="UTF-8"?>
<svg width="315px" height="315px" viewBox="0 0 315 315" version="1.1" xmlns="http://www.w3.org/2000/svg" xmlns:xlink="http://www.w3.org/1999/xlink">
    <!-- Generator: Sketch 46.2 (44496) - http://www.bohemiancoding.com/sketch -->
    <title>labsandvitals-image</title>
    <desc>Created with Sketch.</desc>
    <defs>
        <linearGradient x1="39.6720111%" y1="10.2298278%" x2="79.5737255%" y2="87.435864%" id="linearGradient-1">
            <stop stop-color="#000000" stop-opacity="0.0613960598" offset="0%"></stop>
            <stop stop-color="#030303" stop-opacity="0.05" offset="100%"></stop>
        </linearGradient>
    </defs>
    <g id="Labs-and-Vitals" stroke="none" stroke-width="1" fill="none" fill-rule="evenodd">
        <g id="Labs-and-Vitals---View-when-user-hides-all-labs-results" transform="translate(-535.000000, -309.000000)">
            <g id="Labs-and-Vitals-Message" transform="translate(535.000000, 309.000000)">
                <g id="labsandvitals-image">
                    <circle id="Oval" fill="#F6F6F6" fill-rule="nonzero" cx="157.019671" cy="157.019671" r="157.019671"></circle>
                    <path d="M178,180 L125,128 L33,198 L95.1634372,301.350884 C114.196125,310.338542 142.781106,314.039343 157.019671,314.039343 C242.715404,314.039343 312.368696,245.386324 314.00022,160.080762 L283,111 L178,180 Z" id="Shape" fill="url(#linearGradient-1)" fill-rule="nonzero"></path>
                    <g id="Group" transform="translate(157.458530, 152.494972) rotate(10.000000) translate(-157.458530, -152.494972) translate(32.958530, 78.494972)">
                        <polyline id="Path-8" stroke="#FFFFFF" stroke-width="6" points="33.0513261 119.031656 82.6283153 52.9290041 148.730968 98.3745775 210.702204 36.403341"></polyline>
                        <circle id="Oval-2" fill="#FFFFFF" cx="83.6146563" cy="53.9153451" r="25.7748356"></circle>
                        <circle id="Oval-2" fill="#FFFFFF" cx="149.717309" cy="95.2295028" r="25.7748356"></circle>
                        <circle id="Oval-2" fill="#FFFFFF" cx="222.396905" cy="26.3827302" r="25.7748356"></circle>
                        <circle id="Oval-2" fill="#FFFFFF" cx="25.9003666" cy="121.452823" r="25.7748356"></circle>
                    </g>
                </g>
            </g>
        </g>
    </g>
</svg>