<svg xmlns="http://www.w3.org/2000/svg" width="20" height="20" viewBox="0 0 20 20">
    <g fill="none" fill-rule="nonzero">
        <path fill="#EECC52" d="M17.641 11.315c-.055-.084-.18-.091-.236-.007a30.13 30.13 0 0 1-2.946 3.394 30.462 30.462 0 0 1-3.252 2.828.144.144 0 0 0 .007.238c3.44 2.186 6.545 2.898 7.928 1.508 1.383-1.39.674-4.504-1.5-7.961z"/>
        <path fill="#25B0BF" d="M14.556 5.539a31.184 31.184 0 0 1 2.856 3.282.13.13 0 0 0 .215-.007c2.19-3.464 2.891-6.593 1.508-7.983-1.39-1.396-4.516-.677-7.977 1.544a.13.13 0 0 0-.007.216c1.14.846 2.293 1.83 3.405 2.948z"/>
        <path fill="#532D6D" d="M2.98 9.492c.694-.007 13.209 0 13.209 0s.188-.05.063-.252a29.725 29.725 0 0 0-2.544-2.877 31.25 31.25 0 0 0-3.69-3.164C7.303 1.237 4.689.12 2.814.12 1.965.12 1.27.35.79.831-.683 2.305.137 5.63 2.674 9.352c.007.007.097.14.305.14z"/>
        <path fill="#D85D48" d="M2.757 10.735C.207 14.465-.62 17.803.86 19.276c.486.482 1.181.713 2.022.713 1.87 0 4.489-1.118 7.199-3.087a29.99 29.99 0 0 0 3.69-3.164 31.048 31.048 0 0 0 2.592-2.94l.007-.007c.055-.063.048-.238-.105-.238l-13.202.007c0 .007-.18-.007-.306.175z"/>
    </g>
</svg>
