<?xml version="1.0" encoding="UTF-8"?>
<svg width="315px" height="315px" viewBox="0 0 315 315" version="1.1" xmlns="http://www.w3.org/2000/svg" xmlns:xlink="http://www.w3.org/1999/xlink">
    <!-- Generator: Sketch 46.2 (44496) - http://www.bohemiancoding.com/sketch -->
    <title>Hit me</title>
    <desc>Created with Sketch.</desc>
    <defs>
        <circle id="path-1" cx="157.019671" cy="157.019671" r="157.019671"></circle>
        <linearGradient x1="32.6259979%" y1="31.4744607%" x2="89.3129897%" y2="84.4351383%" id="linearGradient-3">
            <stop stop-color="#000000" stop-opacity="0.04" offset="0%"></stop>
            <stop stop-color="#000000" stop-opacity="0.01" offset="100%"></stop>
        </linearGradient>
    </defs>
    <g id="Queries" stroke="none" stroke-width="1" fill="none" fill-rule="evenodd">
        <g id="Queries---None-" transform="translate(-493.000000, -257.000000)">
            <g id="Message" transform="translate(493.000000, 257.000000)">
                <g id="Hit-me">
                    <g id="Group-2">
                        <mask id="mask-2" fill="white">
                            <use xlink:href="#path-1"></use>
                        </mask>
                        <use id="Oval" fill="#F6F6F6" fill-rule="nonzero" xlink:href="#path-1"></use>
                        <path d="M235,25 L31.5,253.5 L68.5,306.5 C78.3365628,319.149116 154.761435,321.5 169,321.5 C254.695733,321.5 321.868476,236.805562 323.5,151.5 L235,25 Z" id="Shape" fill="url(#linearGradient-3)" fill-rule="nonzero" mask="url(#mask-2)"></path>
                    </g>
                    <g id="ic_inbox_black_24px" transform="translate(18.358800, 15.259874)">
                        <path d="M205.971489,0.137973248 L66.9998598,0.137973248 C50.192302,0.137973248 41.7519684,11.8775658 37.0188107,29.2759465 L0.290664752,174.96727 L0.283888042,233.241759 C0.283888042,249.267645 13.6087988,262.379732 30.4163566,262.379732 L242.554992,262.379732 C259.211131,262.379732 272.83888,249.267645 272.83888,233.241759 L272.16032,175.067665 L236.255377,29.2759465 C233.205635,13.050873 222.627628,0.137973248 205.971489,0.137973248 Z" id="Path" fill="#D8D7D7"></path>
                        <path d="M251.091143,174.965813 L181.987216,174.965813 C181.987216,199.150331 161.545592,218.672773 136.561384,218.672773 C111.577177,218.672773 91.1355522,199.150331 91.1355522,174.965813 L21.8802059,174.965813 L54.8053588,16.369567 L218.16599,16.369567 L251.091143,174.965813 Z" id="Path" fill="#FFFFFF"></path>
                        <polyline id="Path-2" stroke="#D8D7D7" stroke-width="2" points="55.1659195 15.984141 55.1659195 75.2361558 17.6412003 258.740126"></polyline>
                        <path d="M217.962509,75.2361558 L263.691888,251.818893" id="Path-5" stroke="#D8D7D7" stroke-width="2"></path>
                        <polyline id="Path-3" stroke="#D8D7D7" stroke-width="2" points="55.7756446 75.2361558 217.967163 75.2361558 217.967163 15.9841409"></polyline>
                    </g>
                </g>
            </g>
        </g>
    </g>
</svg>