<?xml version="1.0" encoding="UTF-8"?>
<svg width="315px" height="315px" viewBox="0 0 315 315" version="1.1" xmlns="http://www.w3.org/2000/svg" xmlns:xlink="http://www.w3.org/1999/xlink">
    <!-- Generator: Sketch 46.2 (44496) - http://www.bohemiancoding.com/sketch -->
    <title>timeline-image</title>
    <desc>Created with Sketch.</desc>
    <defs>
        <linearGradient x1="39.6720111%" y1="10.2298278%" x2="79.5737255%" y2="87.435864%" id="linearGradient-1">
            <stop stop-color="#000000" stop-opacity="0.0613960598" offset="0%"></stop>
            <stop stop-color="#030303" stop-opacity="0.05" offset="100%"></stop>
        </linearGradient>
    </defs>
    <g id="Timeline" stroke="none" stroke-width="1" fill="none" fill-rule="evenodd">
        <g id="Time-Line---No-Data-to-display" transform="translate(-535.000000, -309.000000)">
            <g id="Timeline-Message" transform="translate(535.000000, 309.000000)">
                <g id="timeline-image">
                    <circle id="Oval" fill="#F6F6F6" fill-rule="nonzero" cx="157.019671" cy="157.019671" r="157.019671"></circle>
                    <path d="M153,86 L130,60 L54,107 L84,145 L54,177 L101,238 L54,251 L95.1634372,301.350884 C114.196125,310.338542 142.781106,314.039343 157.019671,314.039343 C242.715404,314.039343 313.368476,244.305562 315,159 L259,96 L253.432954,106.797758 L167,15 C162.171486,21.4744427 159.50482,27.1411094 159,32 C158.49518,36.8588906 156.49518,54.8588906 153,86 Z" id="Shape" fill="url(#linearGradient-1)" fill-rule="nonzero"></path>
                    <g id="Timeline-Icon---Blue" transform="translate(52.000000, 8.000000)" fill="#FFFFFF">
                        <path d="M110.950617,30.2063432 L110.950617,102.340909 L127.722222,102.340909 L127.722222,114 L110.950617,114 L110.950617,171 L127.722222,171 L127.722222,182.659091 L110.950617,182.659091 L110.950617,264.928571 L105.145062,285 L99.3395062,264.928571 L99.3395062,225.409091 L81.2777778,225.409091 L81.2777778,213.75 L99.3395062,213.75 L99.3395062,151.568182 L81.2777778,151.568182 L81.2777778,139.909091 L99.3395062,139.909091 L99.3395062,82.9090909 L81.2777778,82.9090909 L81.2777778,71.25 L99.3395062,71.25 L99.3395062,29.6813484 C94.0099288,27.2251441 90.308642,21.8193264 90.308642,15.5454545 C90.308642,6.95993707 97.2399373,0 105.790123,0 C114.34031,0 121.271605,6.95993707 121.271605,15.5454545 C121.271605,22.314043 116.963585,28.0722818 110.950617,30.2063432 Z M6,194.318182 L75.2777778,194.318182 C78.5914863,194.318182 81.2777778,197.004473 81.2777778,200.318182 L81.2777778,238.840909 L81.2777778,238.840909 C81.2777778,242.154618 78.5914863,244.840909 75.2777778,244.840909 L6,244.840909 C2.6862915,244.840909 1.29399067e-15,242.154618 8.8817842e-16,238.840909 L0,200.318182 L8.8817842e-16,200.318182 C4.82366169e-16,197.004473 2.6862915,194.318182 6,194.318182 Z M6,50.5227273 L75.2777778,50.5227273 C78.5914863,50.5227273 81.2777778,53.2090188 81.2777778,56.5227273 L81.2777778,95.0454545 C81.2777778,98.359163 78.5914863,101.045455 75.2777778,101.045455 L6,101.045455 C2.6862915,101.045455 4.05812251e-16,98.359163 0,95.0454545 L0,56.5227273 C-4.05812251e-16,53.2090188 2.6862915,50.5227273 6,50.5227273 L6,50.5227273 Z M6,120.477273 L75.2777778,120.477273 C78.5914863,120.477273 81.2777778,123.163564 81.2777778,126.477273 L81.2777778,165 C81.2777778,168.313708 78.5914863,171 75.2777778,171 L6,171 C2.6862915,171 4.05812251e-16,168.313708 0,165 L0,126.477273 C-4.05812251e-16,123.163564 2.6862915,120.477273 6,120.477273 L6,120.477273 Z M133.722222,82.9090909 L203,82.9090909 C206.313708,82.9090909 209,85.5953824 209,88.9090909 L209,127.431818 C209,130.745527 206.313708,133.431818 203,133.431818 L133.722222,133.431818 C130.408514,133.431818 127.722222,130.745527 127.722222,127.431818 L127.722222,88.9090909 C127.722222,85.5953824 130.408514,82.9090909 133.722222,82.9090909 Z M133.722222,151.568182 L203,151.568182 C206.313708,151.568182 209,154.254473 209,157.568182 L209,196.090909 C209,199.404618 206.313708,202.090909 203,202.090909 L133.722222,202.090909 C130.408514,202.090909 127.722222,199.404618 127.722222,196.090909 L127.722222,157.568182 C127.722222,154.254473 130.408514,151.568182 133.722222,151.568182 Z" id="Rectangle-14"></path>
                    </g>
                </g>
            </g>
        </g>
    </g>
</svg>