<?xml version="1.0" encoding="UTF-8"?>
<svg width="280px" height="282px" viewBox="0 0 280 282" version="1.1" xmlns="http://www.w3.org/2000/svg" xmlns:xlink="http://www.w3.org/1999/xlink">
    <!-- Generator: Sketch 46.2 (44496) - http://www.bohemiancoding.com/sketch -->
    <title>white-Icon</title>
    <desc>Created with Sketch.</desc>
    <defs></defs>
    <g id="Page-1" stroke="none" stroke-width="1" fill="none" fill-rule="evenodd">
        <g id="white-Icon" fill-rule="nonzero" fill="#FFFFFF">
            <path d="M248.754846,158.94486 C247.977685,157.75331 246.211409,157.654014 245.420117,158.845564 C232.757511,175.911621 218.842949,192.004471 203.792526,206.989844 C189.43801,221.43399 174.082446,234.839364 157.841092,247.105349 C157.295671,247.501975 156.981082,248.143836 157.000882,248.819646 C157.020682,249.495455 157.372304,250.117645 157.940003,250.481406 C206.547917,281.490067 250.422211,291.589869 269.964288,271.872559 C289.506364,252.155249 279.488047,207.982802 248.768977,158.94486 L248.754846,158.94486 Z" id="Shape"></path>
            <path d="M205.022376,76.7761002 C219.579843,91.3045622 233.10386,106.831055 245.495714,123.242246 C245.854862,123.735447 246.435243,124.01887 247.04541,123.999023 C247.655577,123.979176 248.216275,123.658637 248.542551,123.143141 C279.577779,74.1002618 289.511886,29.800271 269.912927,10.1208248 C250.214769,-9.6435687 205.91517,0.535943414 156.868173,31.9805838 C156.346194,32.3054445 156.020889,32.8690924 156.000969,33.483163 C155.98105,34.0972336 156.269144,34.6807414 156.768974,35.0386847 C172.924298,47.016247 189.263849,60.947596 205.022376,76.7761002 L205.022376,76.7761002 Z" id="Shape"></path>
            <path d="M41.3679825,133 C51.1998784,132.900662 228.499846,133 228.499846,133 C228.499846,133 231.163241,132.29044 229.392367,129.423816 C218.269892,115.050461 206.231159,101.412636 193.351526,88.5957106 C177.116342,72.2918307 159.638076,57.2794354 141.075307,43.694729 C102.611911,15.8515792 65.5793804,0 39.016261,0 C26.9884805,0 17.1424176,3.26397781 10.3422591,10.0899488 C-10.5257275,31.0077892 1.09121003,78.1935553 37.0328814,131.013231 C37.1320504,131.112569 38.4070801,133 41.3538155,133 L41.3679825,133 Z" id="Shape"></path>
            <path d="M38.1646674,150.58457 C2.12563991,203.554048 -9.56231137,250.956761 11.3544575,271.874735 C18.2230722,278.719585 28.0454738,282 39.9312864,282 C66.3599066,282 103.374108,266.123357 141.674408,238.161721 C160.239234,224.627006 177.680036,209.600413 193.825,193.22997 C206.898776,180.102165 219.134019,166.157473 230.457612,151.479228 L230.556543,151.379822 C231.333855,150.485163 231.234924,148 229.072583,148 L42.4893507,148.099407 C42.4893507,148.198813 39.9454194,148 38.1646674,150.58457 L38.1646674,150.58457 Z" id="Shape"></path>
        </g>
    </g>
</svg>